M48
;DRILL file {Pcbnew (2013-mar-13)-testing} date Mon 15 Apr 2013 12:09:38 AM CEST
;FORMAT={-:-/ absolute / metric / decimal}
FMAT,2
METRIC,TZ
T1C0.635
T2C0.699
T3C0.899
T4C0.900
T5C0.998
T6C1.499
T7C1.702
T8C3.988
%
G90
G05
M71
T1
X200.404Y-179.87
X207.443Y-186.924
X207.711Y-182.569
X214.546Y-187.307
X214.588Y-185.743
X215.034Y-180.927
X215.046Y-109.713
X217.332Y-190.346
X219.084Y-183.979
X219.61Y-185.186
X219.746Y-179.907
X220.4Y-176.764
X221.075Y-175.452
X221.301Y-187.462
X221.619Y-159.483
X221.886Y-174.626
X222.723Y-179.905
X223.389Y-188.383
X229.457Y-186.589
X232.273Y-187.315
X234.738Y-178.867
X239.54Y-178.92
X241.609Y-190.346
T2
X215.902Y-105.824
X216.702Y-104.623
X217.5Y-105.824
X218.298Y-104.623
X219.098Y-105.824
T3
X68.5Y-135.5
X69.Y-116.5
X71.5Y-154.5
X71.5Y-192.5
X75.5Y-135.5
X76.Y-116.5
X76.Y-173.5
X78.5Y-154.5
X78.5Y-192.5
X83.Y-173.5
X88.Y-135.5
X88.5Y-116.5
X93.Y-154.5
X93.Y-192.5
X95.Y-135.5
X95.5Y-116.5
X98.Y-173.5
X100.Y-154.5
X100.Y-192.5
X105.Y-173.5
X107.Y-116.5
X107.Y-135.5
X112.Y-154.5
X114.Y-116.5
X114.Y-135.5
X114.5Y-192.5
X119.Y-154.5
X121.Y-173.5
X121.5Y-192.5
X125.5Y-135.5
X126.Y-116.5
X128.Y-173.5
X131.Y-154.5
X132.5Y-135.5
X133.Y-116.5
X138.Y-154.5
X140.Y-173.5
X144.5Y-135.5
X145.Y-116.5
X147.Y-173.5
X150.Y-154.5
X151.5Y-135.5
X152.Y-116.5
X157.Y-154.5
X159.Y-173.5
X164.Y-116.5
X166.Y-173.5
X169.Y-135.5
X169.Y-154.5
X171.Y-116.5
X175.5Y-173.5
X176.Y-135.5
X176.Y-154.5
X182.5Y-173.5
X183.Y-116.5
X183.Y-135.5
X185.Y-173.5
X187.5Y-154.
X190.Y-116.5
X190.Y-135.5
X192.Y-173.5
X194.5Y-154.
X200.Y-156.5
X202.Y-135.5
X207.Y-116.5
X207.Y-154.5
X207.Y-156.5
X209.Y-135.5
X214.Y-116.5
X214.Y-154.5
X218.5Y-156.5
X221.Y-135.5
X225.5Y-156.5
X226.Y-116.5
X226.Y-154.5
X228.Y-135.5
X233.Y-116.5
X233.Y-154.5
X237.5Y-156.5
X240.Y-116.5
X240.Y-135.5
X240.Y-154.5
X244.5Y-156.5
X247.Y-116.5
X247.Y-135.5
X247.Y-154.5
X251.5Y-192.5
X254.Y-173.5
X258.5Y-192.5
X259.Y-116.5
X259.Y-135.5
X261.Y-173.5
X264.Y-154.5
X266.Y-116.5
X266.Y-135.5
X271.Y-154.5
X273.Y-173.5
X275.5Y-192.5
X278.Y-116.5
X278.Y-135.5
X280.Y-173.5
X282.5Y-192.5
X283.Y-154.5
X285.Y-116.5
X285.Y-135.5
X290.Y-154.5
X294.5Y-173.5
X296.5Y-116.5
X296.5Y-192.5
X297.Y-135.5
X301.5Y-173.5
X303.5Y-116.5
X303.5Y-192.5
X304.Y-135.5
X309.Y-154.5
X315.5Y-173.5
X315.5Y-192.5
X316.Y-135.5
X316.Y-154.5
X317.Y-116.5
X322.5Y-173.5
X322.5Y-192.5
X323.Y-135.5
X324.Y-116.5
X334.5Y-116.5
X334.5Y-135.5
X334.5Y-192.5
X335.Y-154.5
X336.Y-173.5
X341.5Y-116.5
X341.5Y-135.5
X341.5Y-192.5
X342.Y-154.5
X343.Y-173.5
T4
X160.02Y-180.34
X160.02Y-182.88
X160.02Y-185.42
X162.56Y-180.34
X162.56Y-182.88
X162.56Y-185.42
T5
X213.85Y-100.777
X221.15Y-100.777
T6
X71.19Y-105.46
X71.19Y-124.46
X73.69Y-143.46
X73.69Y-181.46
X77.54Y-102.92
X77.54Y-121.92
X78.19Y-162.46
X80.04Y-140.92
X80.04Y-178.92
X84.54Y-159.92
X90.19Y-105.46
X90.19Y-124.46
X95.19Y-143.46
X95.19Y-181.46
X96.54Y-102.92
X96.54Y-121.92
X101.54Y-140.92
X101.54Y-178.92
X104.19Y-162.46
X109.19Y-105.46
X109.19Y-124.46
X110.54Y-159.92
X114.19Y-143.46
X115.54Y-102.92
X115.54Y-121.92
X116.69Y-181.46
X120.54Y-140.92
X123.04Y-178.92
X123.19Y-162.46
X128.19Y-105.46
X128.19Y-124.46
X129.54Y-159.92
X133.19Y-143.46
X134.54Y-102.92
X134.54Y-121.92
X139.54Y-140.92
X142.19Y-162.46
X147.19Y-105.46
X147.19Y-124.46
X148.54Y-159.92
X152.19Y-143.46
X153.54Y-102.92
X153.54Y-121.92
X158.54Y-140.92
X161.19Y-162.46
X166.19Y-105.46
X166.19Y-124.46
X167.54Y-159.92
X171.19Y-143.46
X172.54Y-102.92
X172.54Y-121.92
X177.54Y-140.92
X180.19Y-162.46
X185.19Y-105.46
X185.19Y-124.46
X185.19Y-181.46
X186.54Y-159.92
X190.19Y-143.46
X191.54Y-102.92
X191.54Y-121.92
X191.54Y-178.92
X196.54Y-140.92
X199.19Y-162.46
X204.19Y-124.46
X205.46Y-113.08
X205.54Y-159.92
X209.19Y-143.46
X210.54Y-121.92
X211.81Y-110.54
X215.54Y-140.92
X218.19Y-162.46
X223.19Y-124.46
X224.46Y-113.08
X224.54Y-159.92
X228.19Y-143.46
X229.54Y-121.92
X230.81Y-110.54
X234.54Y-140.92
X237.19Y-162.46
X242.19Y-105.46
X242.19Y-124.46
X243.54Y-159.92
X247.19Y-143.46
X248.54Y-102.92
X248.54Y-121.92
X253.54Y-140.92
X253.69Y-181.46
X256.19Y-162.46
X260.04Y-178.92
X261.19Y-105.46
X261.19Y-124.46
X262.54Y-159.92
X266.19Y-143.46
X267.54Y-102.92
X267.54Y-121.92
X272.54Y-140.92
X275.19Y-162.46
X277.69Y-181.46
X280.19Y-105.46
X280.19Y-124.46
X281.54Y-159.92
X284.04Y-178.92
X285.19Y-143.46
X286.54Y-102.92
X286.54Y-121.92
X291.54Y-140.92
X296.69Y-162.46
X299.19Y-105.46
X299.19Y-124.46
X299.19Y-181.46
X303.04Y-159.92
X305.54Y-102.92
X305.54Y-121.92
X305.54Y-178.92
X311.19Y-143.46
X317.54Y-140.92
X318.19Y-105.46
X318.19Y-124.46
X318.19Y-162.46
X318.19Y-181.46
X324.54Y-102.92
X324.54Y-121.92
X324.54Y-159.92
X324.54Y-178.92
X337.19Y-105.46
X337.19Y-124.46
X337.19Y-143.46
X337.19Y-162.46
X337.19Y-181.46
X343.54Y-102.92
X343.54Y-121.92
X343.54Y-140.92
X343.54Y-159.92
X343.54Y-178.92
T7
X69.92Y-108.
X69.92Y-127.
X72.42Y-146.
X72.42Y-184.
X76.92Y-165.
X80.08Y-108.
X80.08Y-127.
X82.58Y-146.
X82.58Y-184.
X87.08Y-165.
X88.92Y-108.
X88.92Y-127.
X93.92Y-146.
X93.92Y-184.
X99.08Y-108.
X99.08Y-127.
X102.92Y-165.
X104.08Y-146.
X104.08Y-184.
X107.92Y-108.
X107.92Y-127.
X112.92Y-146.
X113.08Y-165.
X115.42Y-184.
X118.08Y-108.
X118.08Y-127.
X121.92Y-165.
X123.08Y-146.
X125.58Y-184.
X126.92Y-108.
X126.92Y-127.
X131.92Y-146.
X132.08Y-165.
X137.08Y-108.
X137.08Y-127.
X140.92Y-165.
X142.08Y-146.
X145.92Y-108.
X145.92Y-127.
X150.92Y-146.
X151.08Y-165.
X156.08Y-108.
X156.08Y-127.
X159.92Y-165.
X161.08Y-146.
X164.92Y-108.
X164.92Y-127.
X169.92Y-146.
X170.08Y-165.
X175.08Y-108.
X175.08Y-127.
X178.92Y-165.
X180.08Y-146.
X183.92Y-108.
X183.92Y-127.
X183.92Y-184.
X188.92Y-146.
X189.08Y-165.
X194.08Y-108.
X194.08Y-127.
X194.08Y-184.
X197.92Y-165.
X199.08Y-146.
X202.92Y-108.
X202.92Y-127.
X207.92Y-146.
X208.08Y-165.
X213.08Y-108.
X213.08Y-127.
X216.92Y-165.
X218.08Y-146.
X221.92Y-108.
X221.92Y-127.
X226.92Y-146.
X227.08Y-165.
X232.08Y-108.
X232.08Y-127.
X235.92Y-165.
X237.08Y-146.
X240.92Y-108.
X240.92Y-127.
X245.92Y-146.
X246.08Y-165.
X251.08Y-108.
X251.08Y-127.
X252.42Y-184.
X254.92Y-165.
X256.08Y-146.
X259.92Y-108.
X259.92Y-127.
X262.58Y-184.
X264.92Y-146.
X265.08Y-165.
X270.08Y-108.
X270.08Y-127.
X273.92Y-165.
X275.08Y-146.
X276.42Y-184.
X278.92Y-108.
X278.92Y-127.
X283.92Y-146.
X284.08Y-165.
X286.58Y-184.
X289.08Y-108.
X289.08Y-127.
X294.08Y-146.
X295.42Y-165.
X297.92Y-108.
X297.92Y-127.
X297.92Y-184.
X305.58Y-165.
X308.08Y-108.
X308.08Y-127.
X308.08Y-184.
X309.92Y-146.
X316.92Y-108.
X316.92Y-127.
X316.92Y-165.
X316.92Y-184.
X320.08Y-146.
X327.08Y-108.
X327.08Y-127.
X327.08Y-165.
X327.08Y-184.
X335.92Y-108.
X335.92Y-127.
X335.92Y-146.
X335.92Y-165.
X335.92Y-184.
X346.08Y-108.
X346.08Y-127.
X346.08Y-146.
X346.08Y-165.
X346.08Y-184.
T8
X75.Y-108.
X75.Y-127.
X77.5Y-146.
X77.5Y-184.
X82.Y-165.
X94.Y-108.
X94.Y-127.
X99.Y-146.
X99.Y-184.
X108.Y-165.
X113.Y-108.
X113.Y-127.
X118.Y-146.
X120.5Y-184.
X127.Y-165.
X132.Y-108.
X132.Y-127.
X137.Y-146.
X146.Y-165.
X151.Y-108.
X151.Y-127.
X156.Y-146.
X165.Y-165.
X170.Y-108.
X170.Y-127.
X175.Y-146.
X184.Y-165.
X189.Y-108.
X189.Y-127.
X189.Y-184.
X194.Y-146.
X203.Y-165.
X208.Y-108.
X208.Y-127.
X213.Y-146.
X222.Y-165.
X227.Y-108.
X227.Y-127.
X232.Y-146.
X241.Y-165.
X246.Y-108.
X246.Y-127.
X251.Y-146.
X257.5Y-184.
X260.Y-165.
X265.Y-108.
X265.Y-127.
X270.Y-146.
X279.Y-165.
X281.5Y-184.
X284.Y-108.
X284.Y-127.
X289.Y-146.
X300.5Y-165.
X303.Y-108.
X303.Y-127.
X303.Y-184.
X315.Y-146.
X322.Y-108.
X322.Y-127.
X322.Y-165.
X322.Y-184.
X341.Y-108.
X341.Y-127.
X341.Y-146.
X341.Y-165.
X341.Y-184.
T0
M30
