G04 (created by PCBNEW (2013-mar-13)-testing) date Mon 15 Apr 2013 12:09:35 AM CEST*
%MOIN*%
G04 Gerber Fmt 3.4, Leading zero omitted, Abs format*
%FSLAX34Y34*%
G01*
G70*
G90*
G04 APERTURE LIST*
%ADD10C,0.006*%
%ADD11R,0.035X0.055*%
%ADD12R,0.016X0.06*%
%ADD13R,0.06X0.016*%
%ADD14C,0.0590551*%
%ADD15C,0.105*%
%ADD16C,0.177165*%
%ADD17C,0.04*%
%ADD18O,0.112X0.056*%
%ADD19R,0.0472441X0.0551181*%
G04 APERTURE END LIST*
G54D10*
G54D11*
X80875Y-69500D03*
X80125Y-69500D03*
X80875Y-70500D03*
X80125Y-70500D03*
X95457Y-73909D03*
X94707Y-73909D03*
X95457Y-70956D03*
X94707Y-70956D03*
X80125Y-71500D03*
X80875Y-71500D03*
X90625Y-68500D03*
X91375Y-68500D03*
G54D12*
X87500Y-70250D03*
X87815Y-70250D03*
X88130Y-70250D03*
X88445Y-70250D03*
X88760Y-70250D03*
X89075Y-70250D03*
X87185Y-70250D03*
X86870Y-70250D03*
X86555Y-70250D03*
X86240Y-70250D03*
X85925Y-70250D03*
X87500Y-74750D03*
X87815Y-74750D03*
X88130Y-74750D03*
X88445Y-74750D03*
X88760Y-74750D03*
X89075Y-74750D03*
X87185Y-74750D03*
X86870Y-74750D03*
X86555Y-74750D03*
X86240Y-74750D03*
X85925Y-74750D03*
G54D13*
X89750Y-72500D03*
X85250Y-72500D03*
X89750Y-72815D03*
X85250Y-72815D03*
X85250Y-73130D03*
X89750Y-73130D03*
X89750Y-73445D03*
X85250Y-73445D03*
X85250Y-73760D03*
X89750Y-73760D03*
X89750Y-74075D03*
X85250Y-74075D03*
X85250Y-72185D03*
X89750Y-72185D03*
X89750Y-71870D03*
X85250Y-71870D03*
X85250Y-71555D03*
X89750Y-71555D03*
X89750Y-71240D03*
X85250Y-71240D03*
X85250Y-70925D03*
X89750Y-70925D03*
G54D14*
X64000Y-71000D03*
X64000Y-72000D03*
X64000Y-73000D03*
X63000Y-71000D03*
X63000Y-72000D03*
X63000Y-73000D03*
G54D15*
X30527Y-40519D03*
X28027Y-41519D03*
X30527Y-48000D03*
X28027Y-49000D03*
X75409Y-40519D03*
X72909Y-41519D03*
X52968Y-40519D03*
X50468Y-41519D03*
X69897Y-55480D03*
X67397Y-56480D03*
X39976Y-70440D03*
X37476Y-71440D03*
X51000Y-62960D03*
X48500Y-63960D03*
X58480Y-62960D03*
X55980Y-63960D03*
X67929Y-48000D03*
X65429Y-49000D03*
X60448Y-40519D03*
X57948Y-41519D03*
X38007Y-48000D03*
X35507Y-49000D03*
X65960Y-62960D03*
X63460Y-63960D03*
X52968Y-48000D03*
X50468Y-49000D03*
X47456Y-55480D03*
X44956Y-56480D03*
X39976Y-55480D03*
X37476Y-56480D03*
X67929Y-40519D03*
X65429Y-41519D03*
X60448Y-48000D03*
X57948Y-49000D03*
X54937Y-55480D03*
X52437Y-56480D03*
X62417Y-55480D03*
X59917Y-56480D03*
X45488Y-40519D03*
X42988Y-41519D03*
X45488Y-48000D03*
X42988Y-49000D03*
X43519Y-62960D03*
X41019Y-63960D03*
X38007Y-40519D03*
X35507Y-41519D03*
X112811Y-40519D03*
X110311Y-41519D03*
X110842Y-62960D03*
X108342Y-63960D03*
X112811Y-48000D03*
X110311Y-49000D03*
X114779Y-55480D03*
X112279Y-56480D03*
X120291Y-40519D03*
X117791Y-41519D03*
X120291Y-70440D03*
X117791Y-71440D03*
X120291Y-48000D03*
X117791Y-49000D03*
X105330Y-48000D03*
X102830Y-49000D03*
X127771Y-62960D03*
X125271Y-63960D03*
X127771Y-70440D03*
X125271Y-71440D03*
X127771Y-48000D03*
X125271Y-49000D03*
X135251Y-40519D03*
X132751Y-41519D03*
X135251Y-62960D03*
X132751Y-63960D03*
X135251Y-70440D03*
X132751Y-71440D03*
X135251Y-48000D03*
X132751Y-49000D03*
X135251Y-55480D03*
X132751Y-56480D03*
X127771Y-40519D03*
X125271Y-41519D03*
X80921Y-62960D03*
X78421Y-63960D03*
X82889Y-48000D03*
X80389Y-49000D03*
X84858Y-55480D03*
X82358Y-56480D03*
X88370Y-44519D03*
X90870Y-43519D03*
X88401Y-62960D03*
X85901Y-63960D03*
X107299Y-55480D03*
X104799Y-56480D03*
X90370Y-48000D03*
X87870Y-49000D03*
X77377Y-55480D03*
X74877Y-56480D03*
X80889Y-44519D03*
X83389Y-43519D03*
X97850Y-40519D03*
X95350Y-41519D03*
X95881Y-62960D03*
X93381Y-63960D03*
X75409Y-48000D03*
X72909Y-49000D03*
X97850Y-48000D03*
X95350Y-49000D03*
X99818Y-55480D03*
X97318Y-56480D03*
X105330Y-40519D03*
X102830Y-41519D03*
X103362Y-62960D03*
X100862Y-63960D03*
X73440Y-62960D03*
X70940Y-63960D03*
X92338Y-55480D03*
X89838Y-56480D03*
X33283Y-62960D03*
X30783Y-63960D03*
X125015Y-55480D03*
X122515Y-56480D03*
X31511Y-70440D03*
X29011Y-71440D03*
X31511Y-55480D03*
X29011Y-56480D03*
X119307Y-62960D03*
X116807Y-63960D03*
X111826Y-70440D03*
X109326Y-71440D03*
X102377Y-70440D03*
X99877Y-71440D03*
X48440Y-70440D03*
X45940Y-71440D03*
G54D16*
X33267Y-46259D03*
X123031Y-46259D03*
X43110Y-69291D03*
X130511Y-69291D03*
X65157Y-54133D03*
X98622Y-61614D03*
G54D15*
X75409Y-70440D03*
X72909Y-71440D03*
G54D17*
X85000Y-41663D03*
X85315Y-41190D03*
X85629Y-41663D03*
X85943Y-41190D03*
X86258Y-41663D03*
G54D18*
X84192Y-39676D03*
X87066Y-39676D03*
G54D19*
X95397Y-71901D03*
X95397Y-72767D03*
X94767Y-71901D03*
X94767Y-72767D03*
M02*
