G04 (created by PCBNEW (2013-mar-13)-testing) date Mon 15 Apr 2013 12:09:35 AM CEST*
%MOIN*%
G04 Gerber Fmt 3.4, Leading zero omitted, Abs format*
%FSLAX34Y34*%
G01*
G70*
G90*
G04 APERTURE LIST*
%ADD10C,0.006*%
%ADD11C,0.0039*%
%ADD12C,0.012*%
%ADD13C,0.008*%
%ADD14C,0.00590551*%
%ADD15C,0.004*%
%ADD16C,4.72441e-06*%
%ADD17C,0.0043*%
%ADD18C,0.0035*%
G04 APERTURE END LIST*
G54D10*
G54D11*
X81200Y-69800D02*
G75*
G03X81200Y-69800I-50J0D01*
G74*
G01*
X80700Y-69800D02*
X81100Y-69800D01*
X81100Y-69800D02*
X81100Y-69200D01*
X81100Y-69200D02*
X80700Y-69200D01*
X80300Y-69200D02*
X79900Y-69200D01*
X79900Y-69200D02*
X79900Y-69800D01*
X79900Y-69800D02*
X80300Y-69800D01*
X81200Y-70800D02*
G75*
G03X81200Y-70800I-50J0D01*
G74*
G01*
X80700Y-70800D02*
X81100Y-70800D01*
X81100Y-70800D02*
X81100Y-70200D01*
X81100Y-70200D02*
X80700Y-70200D01*
X80300Y-70200D02*
X79900Y-70200D01*
X79900Y-70200D02*
X79900Y-70800D01*
X79900Y-70800D02*
X80300Y-70800D01*
X95782Y-74209D02*
G75*
G03X95782Y-74209I-50J0D01*
G74*
G01*
X95282Y-74209D02*
X95682Y-74209D01*
X95682Y-74209D02*
X95682Y-73609D01*
X95682Y-73609D02*
X95282Y-73609D01*
X94882Y-73609D02*
X94482Y-73609D01*
X94482Y-73609D02*
X94482Y-74209D01*
X94482Y-74209D02*
X94882Y-74209D01*
X95782Y-71256D02*
G75*
G03X95782Y-71256I-50J0D01*
G74*
G01*
X95282Y-71256D02*
X95682Y-71256D01*
X95682Y-71256D02*
X95682Y-70656D01*
X95682Y-70656D02*
X95282Y-70656D01*
X94882Y-70656D02*
X94482Y-70656D01*
X94482Y-70656D02*
X94482Y-71256D01*
X94482Y-71256D02*
X94882Y-71256D01*
X79900Y-71200D02*
G75*
G03X79900Y-71200I-50J0D01*
G74*
G01*
X80300Y-71200D02*
X79900Y-71200D01*
X79900Y-71200D02*
X79900Y-71800D01*
X79900Y-71800D02*
X80300Y-71800D01*
X80700Y-71800D02*
X81100Y-71800D01*
X81100Y-71800D02*
X81100Y-71200D01*
X81100Y-71200D02*
X80700Y-71200D01*
X90400Y-68200D02*
G75*
G03X90400Y-68200I-50J0D01*
G74*
G01*
X90800Y-68200D02*
X90400Y-68200D01*
X90400Y-68200D02*
X90400Y-68800D01*
X90400Y-68800D02*
X90800Y-68800D01*
X91200Y-68800D02*
X91600Y-68800D01*
X91600Y-68800D02*
X91600Y-68200D01*
X91600Y-68200D02*
X91200Y-68200D01*
G54D12*
X85530Y-70530D02*
X85530Y-74470D01*
X85530Y-74470D02*
X89470Y-74470D01*
X89470Y-70720D02*
X89470Y-74470D01*
X89280Y-70530D02*
X85530Y-70530D01*
X89470Y-70720D02*
X89280Y-70530D01*
G54D13*
X89250Y-71000D02*
G75*
G03X89250Y-71000I-250J0D01*
G74*
G01*
G54D14*
X30511Y-42519D02*
G75*
G03X30511Y-42519I-984J0D01*
G74*
G01*
G54D10*
X32027Y-42519D02*
G75*
G03X32027Y-42519I-500J0D01*
G74*
G01*
X28027Y-42519D02*
G75*
G03X28027Y-42519I-500J0D01*
G74*
G01*
G54D14*
X30511Y-50000D02*
G75*
G03X30511Y-50000I-984J0D01*
G74*
G01*
G54D10*
X32027Y-50000D02*
G75*
G03X32027Y-50000I-500J0D01*
G74*
G01*
X28027Y-50000D02*
G75*
G03X28027Y-50000I-500J0D01*
G74*
G01*
G54D14*
X75393Y-42519D02*
G75*
G03X75393Y-42519I-984J0D01*
G74*
G01*
G54D10*
X76909Y-42519D02*
G75*
G03X76909Y-42519I-500J0D01*
G74*
G01*
X72909Y-42519D02*
G75*
G03X72909Y-42519I-500J0D01*
G74*
G01*
G54D14*
X52952Y-42519D02*
G75*
G03X52952Y-42519I-984J0D01*
G74*
G01*
G54D10*
X54468Y-42519D02*
G75*
G03X54468Y-42519I-500J0D01*
G74*
G01*
X50468Y-42519D02*
G75*
G03X50468Y-42519I-500J0D01*
G74*
G01*
G54D14*
X69881Y-57480D02*
G75*
G03X69881Y-57480I-984J0D01*
G74*
G01*
G54D10*
X71397Y-57480D02*
G75*
G03X71397Y-57480I-500J0D01*
G74*
G01*
X67397Y-57480D02*
G75*
G03X67397Y-57480I-500J0D01*
G74*
G01*
G54D14*
X39960Y-72440D02*
G75*
G03X39960Y-72440I-984J0D01*
G74*
G01*
G54D10*
X41476Y-72440D02*
G75*
G03X41476Y-72440I-500J0D01*
G74*
G01*
X37476Y-72440D02*
G75*
G03X37476Y-72440I-500J0D01*
G74*
G01*
G54D14*
X50984Y-64960D02*
G75*
G03X50984Y-64960I-984J0D01*
G74*
G01*
G54D10*
X52500Y-64960D02*
G75*
G03X52500Y-64960I-500J0D01*
G74*
G01*
X48500Y-64960D02*
G75*
G03X48500Y-64960I-500J0D01*
G74*
G01*
G54D14*
X58464Y-64960D02*
G75*
G03X58464Y-64960I-984J0D01*
G74*
G01*
G54D10*
X59980Y-64960D02*
G75*
G03X59980Y-64960I-500J0D01*
G74*
G01*
X55980Y-64960D02*
G75*
G03X55980Y-64960I-500J0D01*
G74*
G01*
G54D14*
X67913Y-50000D02*
G75*
G03X67913Y-50000I-984J0D01*
G74*
G01*
G54D10*
X69429Y-50000D02*
G75*
G03X69429Y-50000I-500J0D01*
G74*
G01*
X65429Y-50000D02*
G75*
G03X65429Y-50000I-500J0D01*
G74*
G01*
G54D14*
X60433Y-42519D02*
G75*
G03X60433Y-42519I-984J0D01*
G74*
G01*
G54D10*
X61948Y-42519D02*
G75*
G03X61948Y-42519I-500J0D01*
G74*
G01*
X57948Y-42519D02*
G75*
G03X57948Y-42519I-500J0D01*
G74*
G01*
G54D14*
X37992Y-50000D02*
G75*
G03X37992Y-50000I-984J0D01*
G74*
G01*
G54D10*
X39507Y-50000D02*
G75*
G03X39507Y-50000I-500J0D01*
G74*
G01*
X35507Y-50000D02*
G75*
G03X35507Y-50000I-500J0D01*
G74*
G01*
G54D14*
X65944Y-64960D02*
G75*
G03X65944Y-64960I-984J0D01*
G74*
G01*
G54D10*
X67460Y-64960D02*
G75*
G03X67460Y-64960I-500J0D01*
G74*
G01*
X63460Y-64960D02*
G75*
G03X63460Y-64960I-500J0D01*
G74*
G01*
G54D14*
X52952Y-50000D02*
G75*
G03X52952Y-50000I-984J0D01*
G74*
G01*
G54D10*
X54468Y-50000D02*
G75*
G03X54468Y-50000I-500J0D01*
G74*
G01*
X50468Y-50000D02*
G75*
G03X50468Y-50000I-500J0D01*
G74*
G01*
G54D14*
X47440Y-57480D02*
G75*
G03X47440Y-57480I-984J0D01*
G74*
G01*
G54D10*
X48956Y-57480D02*
G75*
G03X48956Y-57480I-500J0D01*
G74*
G01*
X44956Y-57480D02*
G75*
G03X44956Y-57480I-500J0D01*
G74*
G01*
G54D14*
X39960Y-57480D02*
G75*
G03X39960Y-57480I-984J0D01*
G74*
G01*
G54D10*
X41476Y-57480D02*
G75*
G03X41476Y-57480I-500J0D01*
G74*
G01*
X37476Y-57480D02*
G75*
G03X37476Y-57480I-500J0D01*
G74*
G01*
G54D14*
X67913Y-42519D02*
G75*
G03X67913Y-42519I-984J0D01*
G74*
G01*
G54D10*
X69429Y-42519D02*
G75*
G03X69429Y-42519I-500J0D01*
G74*
G01*
X65429Y-42519D02*
G75*
G03X65429Y-42519I-500J0D01*
G74*
G01*
G54D14*
X60433Y-50000D02*
G75*
G03X60433Y-50000I-984J0D01*
G74*
G01*
G54D10*
X61948Y-50000D02*
G75*
G03X61948Y-50000I-500J0D01*
G74*
G01*
X57948Y-50000D02*
G75*
G03X57948Y-50000I-500J0D01*
G74*
G01*
G54D14*
X54921Y-57480D02*
G75*
G03X54921Y-57480I-984J0D01*
G74*
G01*
G54D10*
X56437Y-57480D02*
G75*
G03X56437Y-57480I-500J0D01*
G74*
G01*
X52437Y-57480D02*
G75*
G03X52437Y-57480I-500J0D01*
G74*
G01*
G54D14*
X62401Y-57480D02*
G75*
G03X62401Y-57480I-984J0D01*
G74*
G01*
G54D10*
X63917Y-57480D02*
G75*
G03X63917Y-57480I-500J0D01*
G74*
G01*
X59917Y-57480D02*
G75*
G03X59917Y-57480I-500J0D01*
G74*
G01*
G54D14*
X45472Y-42519D02*
G75*
G03X45472Y-42519I-984J0D01*
G74*
G01*
G54D10*
X46988Y-42519D02*
G75*
G03X46988Y-42519I-500J0D01*
G74*
G01*
X42988Y-42519D02*
G75*
G03X42988Y-42519I-500J0D01*
G74*
G01*
G54D14*
X45472Y-50000D02*
G75*
G03X45472Y-50000I-984J0D01*
G74*
G01*
G54D10*
X46988Y-50000D02*
G75*
G03X46988Y-50000I-500J0D01*
G74*
G01*
X42988Y-50000D02*
G75*
G03X42988Y-50000I-500J0D01*
G74*
G01*
G54D14*
X43503Y-64960D02*
G75*
G03X43503Y-64960I-984J0D01*
G74*
G01*
G54D10*
X45019Y-64960D02*
G75*
G03X45019Y-64960I-500J0D01*
G74*
G01*
X41019Y-64960D02*
G75*
G03X41019Y-64960I-500J0D01*
G74*
G01*
G54D14*
X37992Y-42519D02*
G75*
G03X37992Y-42519I-984J0D01*
G74*
G01*
G54D10*
X39507Y-42519D02*
G75*
G03X39507Y-42519I-500J0D01*
G74*
G01*
X35507Y-42519D02*
G75*
G03X35507Y-42519I-500J0D01*
G74*
G01*
G54D14*
X112795Y-42519D02*
G75*
G03X112795Y-42519I-984J0D01*
G74*
G01*
G54D10*
X114311Y-42519D02*
G75*
G03X114311Y-42519I-500J0D01*
G74*
G01*
X110311Y-42519D02*
G75*
G03X110311Y-42519I-500J0D01*
G74*
G01*
G54D14*
X110826Y-64960D02*
G75*
G03X110826Y-64960I-984J0D01*
G74*
G01*
G54D10*
X112342Y-64960D02*
G75*
G03X112342Y-64960I-500J0D01*
G74*
G01*
X108342Y-64960D02*
G75*
G03X108342Y-64960I-500J0D01*
G74*
G01*
G54D14*
X112795Y-50000D02*
G75*
G03X112795Y-50000I-984J0D01*
G74*
G01*
G54D10*
X114311Y-50000D02*
G75*
G03X114311Y-50000I-500J0D01*
G74*
G01*
X110311Y-50000D02*
G75*
G03X110311Y-50000I-500J0D01*
G74*
G01*
G54D14*
X114763Y-57480D02*
G75*
G03X114763Y-57480I-984J0D01*
G74*
G01*
G54D10*
X116279Y-57480D02*
G75*
G03X116279Y-57480I-500J0D01*
G74*
G01*
X112279Y-57480D02*
G75*
G03X112279Y-57480I-500J0D01*
G74*
G01*
G54D14*
X120275Y-42519D02*
G75*
G03X120275Y-42519I-984J0D01*
G74*
G01*
G54D10*
X121791Y-42519D02*
G75*
G03X121791Y-42519I-500J0D01*
G74*
G01*
X117791Y-42519D02*
G75*
G03X117791Y-42519I-500J0D01*
G74*
G01*
G54D14*
X120275Y-72440D02*
G75*
G03X120275Y-72440I-984J0D01*
G74*
G01*
G54D10*
X121791Y-72440D02*
G75*
G03X121791Y-72440I-500J0D01*
G74*
G01*
X117791Y-72440D02*
G75*
G03X117791Y-72440I-500J0D01*
G74*
G01*
G54D14*
X120275Y-50000D02*
G75*
G03X120275Y-50000I-984J0D01*
G74*
G01*
G54D10*
X121791Y-50000D02*
G75*
G03X121791Y-50000I-500J0D01*
G74*
G01*
X117791Y-50000D02*
G75*
G03X117791Y-50000I-500J0D01*
G74*
G01*
G54D14*
X105314Y-50000D02*
G75*
G03X105314Y-50000I-984J0D01*
G74*
G01*
G54D10*
X106830Y-50000D02*
G75*
G03X106830Y-50000I-500J0D01*
G74*
G01*
X102830Y-50000D02*
G75*
G03X102830Y-50000I-500J0D01*
G74*
G01*
G54D14*
X127755Y-64960D02*
G75*
G03X127755Y-64960I-984J0D01*
G74*
G01*
G54D10*
X129271Y-64960D02*
G75*
G03X129271Y-64960I-500J0D01*
G74*
G01*
X125271Y-64960D02*
G75*
G03X125271Y-64960I-500J0D01*
G74*
G01*
G54D14*
X127755Y-72440D02*
G75*
G03X127755Y-72440I-984J0D01*
G74*
G01*
G54D10*
X129271Y-72440D02*
G75*
G03X129271Y-72440I-500J0D01*
G74*
G01*
X125271Y-72440D02*
G75*
G03X125271Y-72440I-500J0D01*
G74*
G01*
G54D14*
X127755Y-50000D02*
G75*
G03X127755Y-50000I-984J0D01*
G74*
G01*
G54D10*
X129271Y-50000D02*
G75*
G03X129271Y-50000I-500J0D01*
G74*
G01*
X125271Y-50000D02*
G75*
G03X125271Y-50000I-500J0D01*
G74*
G01*
G54D14*
X135236Y-42519D02*
G75*
G03X135236Y-42519I-984J0D01*
G74*
G01*
G54D10*
X136751Y-42519D02*
G75*
G03X136751Y-42519I-500J0D01*
G74*
G01*
X132751Y-42519D02*
G75*
G03X132751Y-42519I-500J0D01*
G74*
G01*
G54D14*
X135236Y-64960D02*
G75*
G03X135236Y-64960I-984J0D01*
G74*
G01*
G54D10*
X136751Y-64960D02*
G75*
G03X136751Y-64960I-500J0D01*
G74*
G01*
X132751Y-64960D02*
G75*
G03X132751Y-64960I-500J0D01*
G74*
G01*
G54D14*
X135236Y-72440D02*
G75*
G03X135236Y-72440I-984J0D01*
G74*
G01*
G54D10*
X136751Y-72440D02*
G75*
G03X136751Y-72440I-500J0D01*
G74*
G01*
X132751Y-72440D02*
G75*
G03X132751Y-72440I-500J0D01*
G74*
G01*
G54D14*
X135236Y-50000D02*
G75*
G03X135236Y-50000I-984J0D01*
G74*
G01*
G54D10*
X136751Y-50000D02*
G75*
G03X136751Y-50000I-500J0D01*
G74*
G01*
X132751Y-50000D02*
G75*
G03X132751Y-50000I-500J0D01*
G74*
G01*
G54D14*
X135236Y-57480D02*
G75*
G03X135236Y-57480I-984J0D01*
G74*
G01*
G54D10*
X136751Y-57480D02*
G75*
G03X136751Y-57480I-500J0D01*
G74*
G01*
X132751Y-57480D02*
G75*
G03X132751Y-57480I-500J0D01*
G74*
G01*
G54D14*
X127755Y-42519D02*
G75*
G03X127755Y-42519I-984J0D01*
G74*
G01*
G54D10*
X129271Y-42519D02*
G75*
G03X129271Y-42519I-500J0D01*
G74*
G01*
X125271Y-42519D02*
G75*
G03X125271Y-42519I-500J0D01*
G74*
G01*
G54D14*
X80905Y-64960D02*
G75*
G03X80905Y-64960I-984J0D01*
G74*
G01*
G54D10*
X82421Y-64960D02*
G75*
G03X82421Y-64960I-500J0D01*
G74*
G01*
X78421Y-64960D02*
G75*
G03X78421Y-64960I-500J0D01*
G74*
G01*
G54D14*
X82874Y-50000D02*
G75*
G03X82874Y-50000I-984J0D01*
G74*
G01*
G54D10*
X84389Y-50000D02*
G75*
G03X84389Y-50000I-500J0D01*
G74*
G01*
X80389Y-50000D02*
G75*
G03X80389Y-50000I-500J0D01*
G74*
G01*
G54D14*
X84842Y-57480D02*
G75*
G03X84842Y-57480I-984J0D01*
G74*
G01*
G54D10*
X86358Y-57480D02*
G75*
G03X86358Y-57480I-500J0D01*
G74*
G01*
X82358Y-57480D02*
G75*
G03X82358Y-57480I-500J0D01*
G74*
G01*
G54D14*
X90354Y-42519D02*
G75*
G03X90354Y-42519I-984J0D01*
G74*
G01*
G54D10*
X87870Y-42519D02*
G75*
G03X87870Y-42519I-500J0D01*
G74*
G01*
X91870Y-42519D02*
G75*
G03X91870Y-42519I-500J0D01*
G74*
G01*
G54D14*
X88385Y-64960D02*
G75*
G03X88385Y-64960I-984J0D01*
G74*
G01*
G54D10*
X89901Y-64960D02*
G75*
G03X89901Y-64960I-500J0D01*
G74*
G01*
X85901Y-64960D02*
G75*
G03X85901Y-64960I-500J0D01*
G74*
G01*
G54D14*
X107283Y-57480D02*
G75*
G03X107283Y-57480I-984J0D01*
G74*
G01*
G54D10*
X108799Y-57480D02*
G75*
G03X108799Y-57480I-500J0D01*
G74*
G01*
X104799Y-57480D02*
G75*
G03X104799Y-57480I-500J0D01*
G74*
G01*
G54D14*
X90354Y-50000D02*
G75*
G03X90354Y-50000I-984J0D01*
G74*
G01*
G54D10*
X91870Y-50000D02*
G75*
G03X91870Y-50000I-500J0D01*
G74*
G01*
X87870Y-50000D02*
G75*
G03X87870Y-50000I-500J0D01*
G74*
G01*
G54D14*
X77362Y-57480D02*
G75*
G03X77362Y-57480I-984J0D01*
G74*
G01*
G54D10*
X78877Y-57480D02*
G75*
G03X78877Y-57480I-500J0D01*
G74*
G01*
X74877Y-57480D02*
G75*
G03X74877Y-57480I-500J0D01*
G74*
G01*
G54D14*
X82874Y-42519D02*
G75*
G03X82874Y-42519I-984J0D01*
G74*
G01*
G54D10*
X80389Y-42519D02*
G75*
G03X80389Y-42519I-500J0D01*
G74*
G01*
X84389Y-42519D02*
G75*
G03X84389Y-42519I-500J0D01*
G74*
G01*
G54D14*
X97834Y-42519D02*
G75*
G03X97834Y-42519I-984J0D01*
G74*
G01*
G54D10*
X99350Y-42519D02*
G75*
G03X99350Y-42519I-500J0D01*
G74*
G01*
X95350Y-42519D02*
G75*
G03X95350Y-42519I-500J0D01*
G74*
G01*
G54D14*
X95866Y-64960D02*
G75*
G03X95866Y-64960I-984J0D01*
G74*
G01*
G54D10*
X97381Y-64960D02*
G75*
G03X97381Y-64960I-500J0D01*
G74*
G01*
X93381Y-64960D02*
G75*
G03X93381Y-64960I-500J0D01*
G74*
G01*
G54D14*
X75393Y-50000D02*
G75*
G03X75393Y-50000I-984J0D01*
G74*
G01*
G54D10*
X76909Y-50000D02*
G75*
G03X76909Y-50000I-500J0D01*
G74*
G01*
X72909Y-50000D02*
G75*
G03X72909Y-50000I-500J0D01*
G74*
G01*
G54D14*
X97834Y-50000D02*
G75*
G03X97834Y-50000I-984J0D01*
G74*
G01*
G54D10*
X99350Y-50000D02*
G75*
G03X99350Y-50000I-500J0D01*
G74*
G01*
X95350Y-50000D02*
G75*
G03X95350Y-50000I-500J0D01*
G74*
G01*
G54D14*
X99803Y-57480D02*
G75*
G03X99803Y-57480I-984J0D01*
G74*
G01*
G54D10*
X101318Y-57480D02*
G75*
G03X101318Y-57480I-500J0D01*
G74*
G01*
X97318Y-57480D02*
G75*
G03X97318Y-57480I-500J0D01*
G74*
G01*
G54D14*
X105314Y-42519D02*
G75*
G03X105314Y-42519I-984J0D01*
G74*
G01*
G54D10*
X106830Y-42519D02*
G75*
G03X106830Y-42519I-500J0D01*
G74*
G01*
X102830Y-42519D02*
G75*
G03X102830Y-42519I-500J0D01*
G74*
G01*
G54D14*
X103346Y-64960D02*
G75*
G03X103346Y-64960I-984J0D01*
G74*
G01*
G54D10*
X104862Y-64960D02*
G75*
G03X104862Y-64960I-500J0D01*
G74*
G01*
X100862Y-64960D02*
G75*
G03X100862Y-64960I-500J0D01*
G74*
G01*
G54D14*
X73425Y-64960D02*
G75*
G03X73425Y-64960I-984J0D01*
G74*
G01*
G54D10*
X74940Y-64960D02*
G75*
G03X74940Y-64960I-500J0D01*
G74*
G01*
X70940Y-64960D02*
G75*
G03X70940Y-64960I-500J0D01*
G74*
G01*
G54D14*
X92322Y-57480D02*
G75*
G03X92322Y-57480I-984J0D01*
G74*
G01*
G54D10*
X93838Y-57480D02*
G75*
G03X93838Y-57480I-500J0D01*
G74*
G01*
X89838Y-57480D02*
G75*
G03X89838Y-57480I-500J0D01*
G74*
G01*
G54D14*
X33267Y-64960D02*
G75*
G03X33267Y-64960I-984J0D01*
G74*
G01*
G54D10*
X34783Y-64960D02*
G75*
G03X34783Y-64960I-500J0D01*
G74*
G01*
X30783Y-64960D02*
G75*
G03X30783Y-64960I-500J0D01*
G74*
G01*
G54D14*
X125000Y-57480D02*
G75*
G03X125000Y-57480I-984J0D01*
G74*
G01*
G54D10*
X126515Y-57480D02*
G75*
G03X126515Y-57480I-500J0D01*
G74*
G01*
X122515Y-57480D02*
G75*
G03X122515Y-57480I-500J0D01*
G74*
G01*
G54D14*
X31496Y-72440D02*
G75*
G03X31496Y-72440I-984J0D01*
G74*
G01*
G54D10*
X33011Y-72440D02*
G75*
G03X33011Y-72440I-500J0D01*
G74*
G01*
X29011Y-72440D02*
G75*
G03X29011Y-72440I-500J0D01*
G74*
G01*
G54D14*
X31496Y-57480D02*
G75*
G03X31496Y-57480I-984J0D01*
G74*
G01*
G54D10*
X33011Y-57480D02*
G75*
G03X33011Y-57480I-500J0D01*
G74*
G01*
X29011Y-57480D02*
G75*
G03X29011Y-57480I-500J0D01*
G74*
G01*
G54D14*
X119291Y-64960D02*
G75*
G03X119291Y-64960I-984J0D01*
G74*
G01*
G54D10*
X120807Y-64960D02*
G75*
G03X120807Y-64960I-500J0D01*
G74*
G01*
X116807Y-64960D02*
G75*
G03X116807Y-64960I-500J0D01*
G74*
G01*
G54D14*
X111811Y-72440D02*
G75*
G03X111811Y-72440I-984J0D01*
G74*
G01*
G54D10*
X113326Y-72440D02*
G75*
G03X113326Y-72440I-500J0D01*
G74*
G01*
X109326Y-72440D02*
G75*
G03X109326Y-72440I-500J0D01*
G74*
G01*
G54D14*
X102362Y-72440D02*
G75*
G03X102362Y-72440I-984J0D01*
G74*
G01*
G54D10*
X103877Y-72440D02*
G75*
G03X103877Y-72440I-500J0D01*
G74*
G01*
X99877Y-72440D02*
G75*
G03X99877Y-72440I-500J0D01*
G74*
G01*
G54D14*
X48425Y-72440D02*
G75*
G03X48425Y-72440I-984J0D01*
G74*
G01*
G54D10*
X49940Y-72440D02*
G75*
G03X49940Y-72440I-500J0D01*
G74*
G01*
X45940Y-72440D02*
G75*
G03X45940Y-72440I-500J0D01*
G74*
G01*
G54D14*
X75393Y-72440D02*
G75*
G03X75393Y-72440I-984J0D01*
G74*
G01*
G54D10*
X76909Y-72440D02*
G75*
G03X76909Y-72440I-500J0D01*
G74*
G01*
X72909Y-72440D02*
G75*
G03X72909Y-72440I-500J0D01*
G74*
G01*
G54D15*
X84115Y-38220D02*
X84115Y-41696D01*
X84135Y-41708D02*
X84606Y-41708D01*
X84606Y-41708D02*
X84606Y-41263D01*
X87143Y-41696D02*
X87143Y-38220D01*
X87143Y-38220D02*
X84115Y-38220D01*
X87133Y-41715D02*
X86691Y-41715D01*
X86691Y-41715D02*
X86691Y-41263D01*
X84117Y-38221D02*
X84117Y-39021D01*
X87141Y-38221D02*
X87141Y-38221D01*
X87141Y-38221D02*
X84117Y-38221D01*
X84464Y-39836D02*
X84546Y-38753D01*
X84935Y-38753D02*
X85037Y-39836D01*
X85037Y-39836D02*
X84955Y-39836D01*
X84955Y-39836D02*
X84853Y-38896D01*
X84853Y-38896D02*
X84648Y-38896D01*
X84648Y-38896D02*
X84546Y-39836D01*
X84546Y-39836D02*
X84464Y-39836D01*
X85139Y-38753D02*
X85221Y-40347D01*
X85221Y-38671D02*
X85221Y-38671D01*
X85302Y-38753D02*
X85384Y-40102D01*
X87141Y-38221D02*
X87141Y-39021D01*
X86793Y-39836D02*
X86712Y-38753D01*
X86323Y-38753D02*
X86221Y-39836D01*
X86221Y-39836D02*
X86303Y-39836D01*
X86303Y-39836D02*
X86405Y-38896D01*
X86405Y-38896D02*
X86609Y-38896D01*
X86609Y-38896D02*
X86712Y-39836D01*
X86712Y-39836D02*
X86793Y-39836D01*
X86119Y-38753D02*
X86037Y-40347D01*
X85955Y-40429D02*
X85302Y-40429D01*
X85955Y-38753D02*
X85874Y-40102D01*
X85874Y-40102D02*
X85384Y-40102D01*
X87141Y-38221D02*
X87141Y-39050D01*
X84117Y-38221D02*
X84117Y-39030D01*
X87143Y-41686D02*
X87143Y-40304D01*
X84115Y-40295D02*
X84115Y-41666D01*
G54D16*
X84389Y-39872D02*
X84389Y-39479D01*
X83996Y-39479D02*
X83996Y-39872D01*
X87262Y-39872D02*
X87262Y-39479D01*
X86869Y-39479D02*
X86869Y-39951D01*
G54D15*
X84604Y-41263D02*
X86690Y-41263D01*
X84547Y-38753D02*
G75*
G02X84628Y-38651I115J-8D01*
G74*
G01*
X84630Y-38650D02*
G75*
G02X84854Y-38651I110J-366D01*
G74*
G01*
X84853Y-38650D02*
G75*
G02X84935Y-38753I-34J-111D01*
G74*
G01*
X85303Y-40428D02*
G75*
G02X85221Y-40347I4J86D01*
G74*
G01*
X85139Y-38753D02*
G75*
G02X85221Y-38671I82J0D01*
G74*
G01*
X85221Y-38672D02*
G75*
G02X85302Y-38753I0J-81D01*
G74*
G01*
X86630Y-38650D02*
G75*
G02X86712Y-38753I-34J-111D01*
G74*
G01*
X86407Y-38651D02*
G75*
G02X86630Y-38651I111J-366D01*
G74*
G01*
X86324Y-38753D02*
G75*
G02X86405Y-38651I115J-8D01*
G74*
G01*
X86038Y-40347D02*
G75*
G02X85955Y-40429I-86J5D01*
G74*
G01*
X86037Y-38671D02*
G75*
G02X86119Y-38753I0J-82D01*
G74*
G01*
X85955Y-38753D02*
G75*
G02X86037Y-38671I82J0D01*
G74*
G01*
G54D16*
X84192Y-40068D02*
G75*
G02X83996Y-39872I0J196D01*
G74*
G01*
X84389Y-39872D02*
G75*
G02X84192Y-40069I-197J0D01*
G74*
G01*
X84192Y-39282D02*
G75*
G02X84389Y-39479I0J-197D01*
G74*
G01*
X83995Y-39479D02*
G75*
G02X84192Y-39282I197J0D01*
G74*
G01*
X87066Y-40069D02*
G75*
G02X86869Y-39951I-39J156D01*
G74*
G01*
X87263Y-39872D02*
G75*
G02X87066Y-40069I-197J0D01*
G74*
G01*
X87066Y-39283D02*
G75*
G02X87262Y-39479I0J-196D01*
G74*
G01*
X86869Y-39479D02*
G75*
G02X87066Y-39282I197J0D01*
G74*
G01*
G54D14*
X94570Y-71704D02*
X94570Y-72964D01*
X94570Y-72964D02*
X95594Y-72964D01*
X95594Y-72964D02*
X95594Y-71704D01*
X95594Y-71704D02*
X94570Y-71704D01*
G54D17*
X80532Y-69454D02*
X80598Y-69360D01*
X80645Y-69454D02*
X80645Y-69257D01*
X80570Y-69257D01*
X80551Y-69267D01*
X80542Y-69276D01*
X80532Y-69295D01*
X80532Y-69323D01*
X80542Y-69342D01*
X80551Y-69351D01*
X80570Y-69360D01*
X80645Y-69360D01*
X80457Y-69276D02*
X80448Y-69267D01*
X80429Y-69257D01*
X80382Y-69257D01*
X80363Y-69267D01*
X80354Y-69276D01*
X80345Y-69295D01*
X80345Y-69314D01*
X80354Y-69342D01*
X80467Y-69454D01*
X80345Y-69454D01*
X80650Y-69551D02*
X80640Y-69542D01*
X80621Y-69532D01*
X80575Y-69532D01*
X80556Y-69542D01*
X80546Y-69551D01*
X80537Y-69570D01*
X80537Y-69589D01*
X80546Y-69617D01*
X80659Y-69729D01*
X80537Y-69729D01*
X80462Y-69551D02*
X80453Y-69542D01*
X80434Y-69532D01*
X80387Y-69532D01*
X80368Y-69542D01*
X80359Y-69551D01*
X80349Y-69570D01*
X80349Y-69589D01*
X80359Y-69617D01*
X80471Y-69729D01*
X80349Y-69729D01*
X80532Y-70454D02*
X80598Y-70360D01*
X80645Y-70454D02*
X80645Y-70257D01*
X80570Y-70257D01*
X80551Y-70267D01*
X80542Y-70276D01*
X80532Y-70295D01*
X80532Y-70323D01*
X80542Y-70342D01*
X80551Y-70351D01*
X80570Y-70360D01*
X80645Y-70360D01*
X80345Y-70454D02*
X80457Y-70454D01*
X80401Y-70454D02*
X80401Y-70257D01*
X80420Y-70285D01*
X80439Y-70304D01*
X80457Y-70314D01*
X80650Y-70551D02*
X80640Y-70542D01*
X80621Y-70532D01*
X80575Y-70532D01*
X80556Y-70542D01*
X80546Y-70551D01*
X80537Y-70570D01*
X80537Y-70589D01*
X80546Y-70617D01*
X80659Y-70729D01*
X80537Y-70729D01*
X80462Y-70551D02*
X80453Y-70542D01*
X80434Y-70532D01*
X80387Y-70532D01*
X80368Y-70542D01*
X80359Y-70551D01*
X80349Y-70570D01*
X80349Y-70589D01*
X80359Y-70617D01*
X80471Y-70729D01*
X80349Y-70729D01*
X95115Y-73845D02*
X95124Y-73854D01*
X95153Y-73864D01*
X95171Y-73864D01*
X95199Y-73854D01*
X95218Y-73836D01*
X95228Y-73817D01*
X95237Y-73779D01*
X95237Y-73751D01*
X95228Y-73714D01*
X95218Y-73695D01*
X95199Y-73676D01*
X95171Y-73667D01*
X95153Y-73667D01*
X95124Y-73676D01*
X95115Y-73685D01*
X95040Y-73685D02*
X95031Y-73676D01*
X95012Y-73667D01*
X94965Y-73667D01*
X94946Y-73676D01*
X94937Y-73685D01*
X94927Y-73704D01*
X94927Y-73723D01*
X94937Y-73751D01*
X95049Y-73864D01*
X94927Y-73864D01*
X95293Y-74139D02*
X95406Y-74139D01*
X95350Y-74139D02*
X95350Y-73942D01*
X95368Y-73970D01*
X95387Y-73989D01*
X95406Y-73998D01*
X95171Y-73942D02*
X95153Y-73942D01*
X95134Y-73951D01*
X95124Y-73960D01*
X95115Y-73979D01*
X95106Y-74017D01*
X95106Y-74064D01*
X95115Y-74101D01*
X95124Y-74120D01*
X95134Y-74129D01*
X95153Y-74139D01*
X95171Y-74139D01*
X95190Y-74129D01*
X95199Y-74120D01*
X95209Y-74101D01*
X95218Y-74064D01*
X95218Y-74017D01*
X95209Y-73979D01*
X95199Y-73960D01*
X95190Y-73951D01*
X95171Y-73942D01*
X95021Y-74007D02*
X95021Y-74204D01*
X95021Y-74017D02*
X95002Y-74007D01*
X94965Y-74007D01*
X94946Y-74017D01*
X94937Y-74026D01*
X94927Y-74045D01*
X94927Y-74101D01*
X94937Y-74120D01*
X94946Y-74129D01*
X94965Y-74139D01*
X95002Y-74139D01*
X95021Y-74129D01*
X94777Y-74035D02*
X94843Y-74035D01*
X94843Y-74139D02*
X94843Y-73942D01*
X94749Y-73942D01*
X95115Y-70892D02*
X95124Y-70902D01*
X95153Y-70911D01*
X95171Y-70911D01*
X95199Y-70902D01*
X95218Y-70883D01*
X95228Y-70864D01*
X95237Y-70827D01*
X95237Y-70798D01*
X95228Y-70761D01*
X95218Y-70742D01*
X95199Y-70723D01*
X95171Y-70714D01*
X95153Y-70714D01*
X95124Y-70723D01*
X95115Y-70733D01*
X95049Y-70714D02*
X94927Y-70714D01*
X94993Y-70789D01*
X94965Y-70789D01*
X94946Y-70798D01*
X94937Y-70808D01*
X94927Y-70827D01*
X94927Y-70873D01*
X94937Y-70892D01*
X94946Y-70902D01*
X94965Y-70911D01*
X95021Y-70911D01*
X95040Y-70902D01*
X95049Y-70892D01*
X95293Y-71186D02*
X95406Y-71186D01*
X95350Y-71186D02*
X95350Y-70989D01*
X95368Y-71017D01*
X95387Y-71036D01*
X95406Y-71045D01*
X95171Y-70989D02*
X95153Y-70989D01*
X95134Y-70998D01*
X95124Y-71008D01*
X95115Y-71026D01*
X95106Y-71064D01*
X95106Y-71111D01*
X95115Y-71148D01*
X95124Y-71167D01*
X95134Y-71177D01*
X95153Y-71186D01*
X95171Y-71186D01*
X95190Y-71177D01*
X95199Y-71167D01*
X95209Y-71148D01*
X95218Y-71111D01*
X95218Y-71064D01*
X95209Y-71026D01*
X95199Y-71008D01*
X95190Y-70998D01*
X95171Y-70989D01*
X95021Y-71055D02*
X95021Y-71252D01*
X95021Y-71064D02*
X95002Y-71055D01*
X94965Y-71055D01*
X94946Y-71064D01*
X94937Y-71073D01*
X94927Y-71092D01*
X94927Y-71148D01*
X94937Y-71167D01*
X94946Y-71177D01*
X94965Y-71186D01*
X95002Y-71186D01*
X95021Y-71177D01*
X94777Y-71083D02*
X94843Y-71083D01*
X94843Y-71186D02*
X94843Y-70989D01*
X94749Y-70989D01*
X80532Y-71685D02*
X80542Y-71695D01*
X80570Y-71704D01*
X80589Y-71704D01*
X80617Y-71695D01*
X80636Y-71676D01*
X80645Y-71657D01*
X80654Y-71620D01*
X80654Y-71592D01*
X80645Y-71554D01*
X80636Y-71535D01*
X80617Y-71517D01*
X80589Y-71507D01*
X80570Y-71507D01*
X80542Y-71517D01*
X80532Y-71526D01*
X80345Y-71704D02*
X80457Y-71704D01*
X80401Y-71704D02*
X80401Y-71507D01*
X80420Y-71535D01*
X80439Y-71554D01*
X80457Y-71564D01*
X80711Y-71429D02*
X80823Y-71429D01*
X80767Y-71429D02*
X80767Y-71232D01*
X80786Y-71260D01*
X80804Y-71279D01*
X80823Y-71289D01*
X80589Y-71232D02*
X80570Y-71232D01*
X80551Y-71242D01*
X80542Y-71251D01*
X80532Y-71270D01*
X80523Y-71307D01*
X80523Y-71354D01*
X80532Y-71392D01*
X80542Y-71410D01*
X80551Y-71420D01*
X80570Y-71429D01*
X80589Y-71429D01*
X80607Y-71420D01*
X80617Y-71410D01*
X80626Y-71392D01*
X80636Y-71354D01*
X80636Y-71307D01*
X80626Y-71270D01*
X80617Y-71251D01*
X80607Y-71242D01*
X80589Y-71232D01*
X80354Y-71298D02*
X80354Y-71429D01*
X80439Y-71298D02*
X80439Y-71401D01*
X80429Y-71420D01*
X80410Y-71429D01*
X80382Y-71429D01*
X80363Y-71420D01*
X80354Y-71410D01*
X80195Y-71326D02*
X80260Y-71326D01*
X80260Y-71429D02*
X80260Y-71232D01*
X80166Y-71232D01*
X91032Y-68704D02*
X91098Y-68610D01*
X91145Y-68704D02*
X91145Y-68507D01*
X91070Y-68507D01*
X91051Y-68517D01*
X91042Y-68526D01*
X91032Y-68545D01*
X91032Y-68573D01*
X91042Y-68592D01*
X91051Y-68601D01*
X91070Y-68610D01*
X91145Y-68610D01*
X90967Y-68507D02*
X90845Y-68507D01*
X90910Y-68582D01*
X90882Y-68582D01*
X90863Y-68592D01*
X90854Y-68601D01*
X90845Y-68620D01*
X90845Y-68667D01*
X90854Y-68685D01*
X90863Y-68695D01*
X90882Y-68704D01*
X90939Y-68704D01*
X90957Y-68695D01*
X90967Y-68685D01*
X91042Y-68429D02*
X91154Y-68429D01*
X91098Y-68429D02*
X91098Y-68232D01*
X91117Y-68260D01*
X91136Y-68279D01*
X91154Y-68289D01*
X90957Y-68429D02*
X90957Y-68232D01*
X90845Y-68429D02*
X90929Y-68317D01*
X90845Y-68232D02*
X90957Y-68345D01*
G54D13*
X87804Y-71392D02*
X87804Y-71878D01*
X87785Y-71935D01*
X87766Y-71964D01*
X87728Y-71992D01*
X87652Y-71992D01*
X87614Y-71964D01*
X87595Y-71935D01*
X87576Y-71878D01*
X87576Y-71392D01*
X87176Y-71992D02*
X87404Y-71992D01*
X87290Y-71992D02*
X87290Y-71392D01*
X87328Y-71478D01*
X87366Y-71535D01*
X87404Y-71564D01*
X90576Y-73321D02*
X90385Y-73321D01*
X90614Y-73492D02*
X90480Y-72892D01*
X90347Y-73492D01*
X90271Y-72892D02*
X90042Y-72892D01*
X90157Y-73492D02*
X90157Y-72892D01*
X89909Y-73492D02*
X89909Y-72892D01*
X89776Y-73321D01*
X89642Y-72892D01*
X89642Y-73492D01*
X89452Y-73178D02*
X89319Y-73178D01*
X89261Y-73492D02*
X89452Y-73492D01*
X89452Y-72892D01*
X89261Y-72892D01*
X88880Y-72921D02*
X88919Y-72892D01*
X88976Y-72892D01*
X89033Y-72921D01*
X89071Y-72978D01*
X89090Y-73035D01*
X89109Y-73150D01*
X89109Y-73235D01*
X89090Y-73350D01*
X89071Y-73407D01*
X89033Y-73464D01*
X88976Y-73492D01*
X88938Y-73492D01*
X88880Y-73464D01*
X88861Y-73435D01*
X88861Y-73235D01*
X88938Y-73235D01*
X88709Y-73321D02*
X88519Y-73321D01*
X88747Y-73492D02*
X88614Y-72892D01*
X88480Y-73492D01*
X88385Y-72892D02*
X88138Y-72892D01*
X88271Y-73121D01*
X88214Y-73121D01*
X88176Y-73150D01*
X88157Y-73178D01*
X88138Y-73235D01*
X88138Y-73378D01*
X88157Y-73435D01*
X88176Y-73464D01*
X88214Y-73492D01*
X88328Y-73492D01*
X88366Y-73464D01*
X88385Y-73435D01*
X87985Y-72950D02*
X87966Y-72921D01*
X87928Y-72892D01*
X87833Y-72892D01*
X87795Y-72921D01*
X87776Y-72950D01*
X87757Y-73007D01*
X87757Y-73064D01*
X87776Y-73150D01*
X88004Y-73492D01*
X87757Y-73492D01*
X87585Y-72892D02*
X87585Y-73378D01*
X87566Y-73435D01*
X87547Y-73464D01*
X87509Y-73492D01*
X87433Y-73492D01*
X87395Y-73464D01*
X87376Y-73435D01*
X87357Y-73378D01*
X87357Y-72892D01*
X86995Y-73092D02*
X86995Y-73492D01*
X87090Y-72864D02*
X87185Y-73292D01*
X86938Y-73292D01*
X86880Y-73550D02*
X86576Y-73550D01*
X86538Y-72892D02*
X86309Y-72892D01*
X86423Y-73492D02*
X86423Y-72892D01*
X85909Y-73550D02*
X85947Y-73521D01*
X85985Y-73464D01*
X86042Y-73378D01*
X86080Y-73350D01*
X86119Y-73350D01*
X86100Y-73492D02*
X86138Y-73464D01*
X86176Y-73407D01*
X86195Y-73292D01*
X86195Y-73092D01*
X86176Y-72978D01*
X86138Y-72921D01*
X86100Y-72892D01*
X86023Y-72892D01*
X85985Y-72921D01*
X85947Y-72978D01*
X85928Y-73092D01*
X85928Y-73292D01*
X85947Y-73407D01*
X85985Y-73464D01*
X86023Y-73492D01*
X86100Y-73492D01*
X85623Y-73178D02*
X85757Y-73178D01*
X85757Y-73492D02*
X85757Y-72892D01*
X85566Y-72892D01*
X85414Y-73492D02*
X85414Y-72892D01*
X85261Y-72892D01*
X85223Y-72921D01*
X85204Y-72950D01*
X85185Y-73007D01*
X85185Y-73092D01*
X85204Y-73150D01*
X85223Y-73178D01*
X85261Y-73207D01*
X85414Y-73207D01*
X84842Y-73092D02*
X84842Y-73492D01*
X84938Y-72864D02*
X85033Y-73292D01*
X84785Y-73292D01*
X84461Y-73092D02*
X84461Y-73492D01*
X84557Y-72864D02*
X84652Y-73292D01*
X84404Y-73292D01*
G54D18*
X96233Y-53991D02*
X96233Y-53831D01*
X96271Y-53831D01*
X96294Y-53838D01*
X96309Y-53854D01*
X96317Y-53869D01*
X96325Y-53899D01*
X96325Y-53922D01*
X96317Y-53953D01*
X96309Y-53968D01*
X96294Y-53983D01*
X96271Y-53991D01*
X96233Y-53991D01*
X96378Y-53831D02*
X96477Y-53831D01*
X96424Y-53892D01*
X96447Y-53892D01*
X96462Y-53899D01*
X96469Y-53907D01*
X96477Y-53922D01*
X96477Y-53960D01*
X96469Y-53975D01*
X96462Y-53983D01*
X96447Y-53991D01*
X96401Y-53991D01*
X96386Y-53983D01*
X96378Y-53975D01*
X96546Y-53975D02*
X96553Y-53983D01*
X96546Y-53991D01*
X96538Y-53983D01*
X96546Y-53975D01*
X96546Y-53991D01*
X96546Y-53892D02*
X96553Y-53899D01*
X96546Y-53907D01*
X96538Y-53899D01*
X96546Y-53892D01*
X96546Y-53907D01*
X96629Y-53991D02*
X96660Y-53991D01*
X96675Y-53983D01*
X96683Y-53975D01*
X96698Y-53953D01*
X96706Y-53922D01*
X96706Y-53861D01*
X96698Y-53846D01*
X96690Y-53838D01*
X96675Y-53831D01*
X96645Y-53831D01*
X96629Y-53838D01*
X96622Y-53846D01*
X96614Y-53861D01*
X96614Y-53899D01*
X96622Y-53915D01*
X96629Y-53922D01*
X96645Y-53930D01*
X96675Y-53930D01*
X96690Y-53922D01*
X96698Y-53915D01*
X96706Y-53899D01*
X95803Y-53443D02*
X95803Y-53203D01*
X95860Y-53203D01*
X95894Y-53215D01*
X95917Y-53237D01*
X95928Y-53260D01*
X95940Y-53306D01*
X95940Y-53340D01*
X95928Y-53386D01*
X95917Y-53409D01*
X95894Y-53432D01*
X95860Y-53443D01*
X95803Y-53443D01*
X109149Y-68951D02*
X109149Y-68791D01*
X109187Y-68791D01*
X109210Y-68799D01*
X109225Y-68814D01*
X109233Y-68829D01*
X109241Y-68860D01*
X109241Y-68883D01*
X109233Y-68913D01*
X109225Y-68928D01*
X109210Y-68944D01*
X109187Y-68951D01*
X109149Y-68951D01*
X109393Y-68951D02*
X109302Y-68951D01*
X109347Y-68951D02*
X109347Y-68791D01*
X109332Y-68814D01*
X109317Y-68829D01*
X109302Y-68837D01*
X109462Y-68936D02*
X109469Y-68944D01*
X109462Y-68951D01*
X109454Y-68944D01*
X109462Y-68936D01*
X109462Y-68951D01*
X109462Y-68852D02*
X109469Y-68860D01*
X109462Y-68868D01*
X109454Y-68860D01*
X109462Y-68852D01*
X109462Y-68868D01*
X109622Y-68951D02*
X109530Y-68951D01*
X109576Y-68951D02*
X109576Y-68791D01*
X109561Y-68814D01*
X109545Y-68829D01*
X109530Y-68837D01*
X109774Y-68951D02*
X109683Y-68951D01*
X109728Y-68951D02*
X109728Y-68791D01*
X109713Y-68814D01*
X109698Y-68829D01*
X109683Y-68837D01*
X108795Y-68404D02*
X108795Y-68164D01*
X108852Y-68164D01*
X108886Y-68175D01*
X108909Y-68198D01*
X108921Y-68221D01*
X108932Y-68267D01*
X108932Y-68301D01*
X108921Y-68347D01*
X108909Y-68369D01*
X108886Y-68392D01*
X108852Y-68404D01*
X108795Y-68404D01*
X111118Y-46510D02*
X111118Y-46350D01*
X111156Y-46350D01*
X111179Y-46358D01*
X111194Y-46373D01*
X111202Y-46388D01*
X111209Y-46419D01*
X111209Y-46442D01*
X111202Y-46472D01*
X111194Y-46488D01*
X111179Y-46503D01*
X111156Y-46510D01*
X111118Y-46510D01*
X111346Y-46404D02*
X111346Y-46510D01*
X111308Y-46343D02*
X111270Y-46457D01*
X111369Y-46457D01*
X111430Y-46495D02*
X111438Y-46503D01*
X111430Y-46510D01*
X111422Y-46503D01*
X111430Y-46495D01*
X111430Y-46510D01*
X111430Y-46411D02*
X111438Y-46419D01*
X111430Y-46427D01*
X111422Y-46419D01*
X111430Y-46411D01*
X111430Y-46427D01*
X111590Y-46510D02*
X111499Y-46510D01*
X111544Y-46510D02*
X111544Y-46350D01*
X111529Y-46373D01*
X111514Y-46388D01*
X111499Y-46396D01*
X111742Y-46510D02*
X111651Y-46510D01*
X111697Y-46510D02*
X111697Y-46350D01*
X111682Y-46373D01*
X111666Y-46388D01*
X111651Y-46396D01*
X110763Y-45963D02*
X110763Y-45723D01*
X110821Y-45723D01*
X110855Y-45734D01*
X110878Y-45757D01*
X110889Y-45780D01*
X110901Y-45826D01*
X110901Y-45860D01*
X110889Y-45906D01*
X110878Y-45928D01*
X110855Y-45951D01*
X110821Y-45963D01*
X110763Y-45963D01*
X104406Y-60311D02*
X104406Y-60151D01*
X104444Y-60151D01*
X104467Y-60159D01*
X104482Y-60174D01*
X104490Y-60189D01*
X104497Y-60220D01*
X104497Y-60242D01*
X104490Y-60273D01*
X104482Y-60288D01*
X104467Y-60303D01*
X104444Y-60311D01*
X104406Y-60311D01*
X104558Y-60166D02*
X104566Y-60159D01*
X104581Y-60151D01*
X104619Y-60151D01*
X104634Y-60159D01*
X104642Y-60166D01*
X104650Y-60182D01*
X104650Y-60197D01*
X104642Y-60220D01*
X104551Y-60311D01*
X104650Y-60311D01*
X104718Y-60296D02*
X104726Y-60303D01*
X104718Y-60311D01*
X104711Y-60303D01*
X104718Y-60296D01*
X104718Y-60311D01*
X104718Y-60212D02*
X104726Y-60220D01*
X104718Y-60227D01*
X104711Y-60220D01*
X104718Y-60212D01*
X104718Y-60227D01*
X104878Y-60311D02*
X104787Y-60311D01*
X104833Y-60311D02*
X104833Y-60151D01*
X104817Y-60174D01*
X104802Y-60189D01*
X104787Y-60197D01*
X104977Y-60151D02*
X104993Y-60151D01*
X105008Y-60159D01*
X105015Y-60166D01*
X105023Y-60182D01*
X105031Y-60212D01*
X105031Y-60250D01*
X105023Y-60281D01*
X105015Y-60296D01*
X105008Y-60303D01*
X104993Y-60311D01*
X104977Y-60311D01*
X104962Y-60303D01*
X104954Y-60296D01*
X104947Y-60281D01*
X104939Y-60250D01*
X104939Y-60212D01*
X104947Y-60182D01*
X104954Y-60166D01*
X104962Y-60159D01*
X104977Y-60151D01*
X105252Y-60923D02*
X105252Y-60683D01*
X105309Y-60683D01*
X105343Y-60695D01*
X105366Y-60718D01*
X105377Y-60741D01*
X105389Y-60786D01*
X105389Y-60821D01*
X105377Y-60866D01*
X105366Y-60889D01*
X105343Y-60912D01*
X105309Y-60923D01*
X105252Y-60923D01*
X103637Y-53991D02*
X103637Y-53831D01*
X103675Y-53831D01*
X103698Y-53838D01*
X103714Y-53854D01*
X103721Y-53869D01*
X103729Y-53899D01*
X103729Y-53922D01*
X103721Y-53953D01*
X103714Y-53968D01*
X103698Y-53983D01*
X103675Y-53991D01*
X103637Y-53991D01*
X103782Y-53831D02*
X103881Y-53831D01*
X103828Y-53892D01*
X103851Y-53892D01*
X103866Y-53899D01*
X103874Y-53907D01*
X103881Y-53922D01*
X103881Y-53960D01*
X103874Y-53975D01*
X103866Y-53983D01*
X103851Y-53991D01*
X103805Y-53991D01*
X103790Y-53983D01*
X103782Y-53975D01*
X103950Y-53975D02*
X103957Y-53983D01*
X103950Y-53991D01*
X103942Y-53983D01*
X103950Y-53975D01*
X103950Y-53991D01*
X103950Y-53892D02*
X103957Y-53899D01*
X103950Y-53907D01*
X103942Y-53899D01*
X103950Y-53892D01*
X103950Y-53907D01*
X104110Y-53991D02*
X104018Y-53991D01*
X104064Y-53991D02*
X104064Y-53831D01*
X104049Y-53854D01*
X104034Y-53869D01*
X104018Y-53876D01*
X104209Y-53831D02*
X104224Y-53831D01*
X104239Y-53838D01*
X104247Y-53846D01*
X104255Y-53861D01*
X104262Y-53892D01*
X104262Y-53930D01*
X104255Y-53960D01*
X104247Y-53975D01*
X104239Y-53983D01*
X104224Y-53991D01*
X104209Y-53991D01*
X104194Y-53983D01*
X104186Y-53975D01*
X104178Y-53960D01*
X104171Y-53930D01*
X104171Y-53892D01*
X104178Y-53861D01*
X104186Y-53846D01*
X104194Y-53838D01*
X104209Y-53831D01*
X103283Y-53443D02*
X103283Y-53203D01*
X103340Y-53203D01*
X103375Y-53215D01*
X103397Y-53237D01*
X103409Y-53260D01*
X103420Y-53306D01*
X103420Y-53340D01*
X103409Y-53386D01*
X103397Y-53409D01*
X103375Y-53432D01*
X103340Y-53443D01*
X103283Y-53443D01*
X100685Y-76432D02*
X100685Y-76272D01*
X100723Y-76272D01*
X100746Y-76279D01*
X100761Y-76295D01*
X100768Y-76310D01*
X100776Y-76340D01*
X100776Y-76363D01*
X100768Y-76394D01*
X100761Y-76409D01*
X100746Y-76424D01*
X100723Y-76432D01*
X100685Y-76432D01*
X100875Y-76272D02*
X100890Y-76272D01*
X100906Y-76279D01*
X100913Y-76287D01*
X100921Y-76302D01*
X100928Y-76333D01*
X100928Y-76371D01*
X100921Y-76401D01*
X100913Y-76416D01*
X100906Y-76424D01*
X100890Y-76432D01*
X100875Y-76432D01*
X100860Y-76424D01*
X100852Y-76416D01*
X100845Y-76401D01*
X100837Y-76371D01*
X100837Y-76333D01*
X100845Y-76302D01*
X100852Y-76287D01*
X100860Y-76279D01*
X100875Y-76272D01*
X100997Y-76416D02*
X101005Y-76424D01*
X100997Y-76432D01*
X100989Y-76424D01*
X100997Y-76416D01*
X100997Y-76432D01*
X100997Y-76333D02*
X101005Y-76340D01*
X100997Y-76348D01*
X100989Y-76340D01*
X100997Y-76333D01*
X100997Y-76348D01*
X101157Y-76432D02*
X101066Y-76432D01*
X101111Y-76432D02*
X101111Y-76272D01*
X101096Y-76295D01*
X101081Y-76310D01*
X101066Y-76317D01*
X101256Y-76272D02*
X101271Y-76272D01*
X101287Y-76279D01*
X101294Y-76287D01*
X101302Y-76302D01*
X101309Y-76333D01*
X101309Y-76371D01*
X101302Y-76401D01*
X101294Y-76416D01*
X101287Y-76424D01*
X101271Y-76432D01*
X101256Y-76432D01*
X101241Y-76424D01*
X101233Y-76416D01*
X101226Y-76401D01*
X101218Y-76371D01*
X101218Y-76333D01*
X101226Y-76302D01*
X101233Y-76287D01*
X101241Y-76279D01*
X101256Y-76272D01*
X100330Y-75884D02*
X100330Y-75644D01*
X100387Y-75644D01*
X100422Y-75655D01*
X100445Y-75678D01*
X100456Y-75701D01*
X100467Y-75747D01*
X100467Y-75781D01*
X100456Y-75827D01*
X100445Y-75850D01*
X100422Y-75873D01*
X100387Y-75884D01*
X100330Y-75884D01*
X101669Y-68951D02*
X101669Y-68791D01*
X101707Y-68791D01*
X101730Y-68799D01*
X101745Y-68814D01*
X101753Y-68829D01*
X101760Y-68860D01*
X101760Y-68883D01*
X101753Y-68913D01*
X101745Y-68928D01*
X101730Y-68944D01*
X101707Y-68951D01*
X101669Y-68951D01*
X101913Y-68951D02*
X101821Y-68951D01*
X101867Y-68951D02*
X101867Y-68791D01*
X101852Y-68814D01*
X101837Y-68829D01*
X101821Y-68837D01*
X101981Y-68936D02*
X101989Y-68944D01*
X101981Y-68951D01*
X101974Y-68944D01*
X101981Y-68936D01*
X101981Y-68951D01*
X101981Y-68852D02*
X101989Y-68860D01*
X101981Y-68868D01*
X101974Y-68860D01*
X101981Y-68852D01*
X101981Y-68868D01*
X102141Y-68951D02*
X102050Y-68951D01*
X102096Y-68951D02*
X102096Y-68791D01*
X102080Y-68814D01*
X102065Y-68829D01*
X102050Y-68837D01*
X102240Y-68791D02*
X102256Y-68791D01*
X102271Y-68799D01*
X102278Y-68807D01*
X102286Y-68822D01*
X102294Y-68852D01*
X102294Y-68890D01*
X102286Y-68921D01*
X102278Y-68936D01*
X102271Y-68944D01*
X102256Y-68951D01*
X102240Y-68951D01*
X102225Y-68944D01*
X102217Y-68936D01*
X102210Y-68921D01*
X102202Y-68890D01*
X102202Y-68852D01*
X102210Y-68822D01*
X102217Y-68807D01*
X102225Y-68799D01*
X102240Y-68791D01*
X101315Y-68404D02*
X101315Y-68164D01*
X101372Y-68164D01*
X101406Y-68175D01*
X101429Y-68198D01*
X101440Y-68221D01*
X101452Y-68267D01*
X101452Y-68301D01*
X101440Y-68347D01*
X101429Y-68369D01*
X101406Y-68392D01*
X101372Y-68404D01*
X101315Y-68404D01*
X103637Y-46510D02*
X103637Y-46350D01*
X103675Y-46350D01*
X103698Y-46358D01*
X103714Y-46373D01*
X103721Y-46388D01*
X103729Y-46419D01*
X103729Y-46442D01*
X103721Y-46472D01*
X103714Y-46488D01*
X103698Y-46503D01*
X103675Y-46510D01*
X103637Y-46510D01*
X103866Y-46404D02*
X103866Y-46510D01*
X103828Y-46343D02*
X103790Y-46457D01*
X103889Y-46457D01*
X103950Y-46495D02*
X103957Y-46503D01*
X103950Y-46510D01*
X103942Y-46503D01*
X103950Y-46495D01*
X103950Y-46510D01*
X103950Y-46411D02*
X103957Y-46419D01*
X103950Y-46427D01*
X103942Y-46419D01*
X103950Y-46411D01*
X103950Y-46427D01*
X104110Y-46510D02*
X104018Y-46510D01*
X104064Y-46510D02*
X104064Y-46350D01*
X104049Y-46373D01*
X104034Y-46388D01*
X104018Y-46396D01*
X104209Y-46350D02*
X104224Y-46350D01*
X104239Y-46358D01*
X104247Y-46366D01*
X104255Y-46381D01*
X104262Y-46411D01*
X104262Y-46449D01*
X104255Y-46480D01*
X104247Y-46495D01*
X104239Y-46503D01*
X104224Y-46510D01*
X104209Y-46510D01*
X104194Y-46503D01*
X104186Y-46495D01*
X104178Y-46480D01*
X104171Y-46449D01*
X104171Y-46411D01*
X104178Y-46381D01*
X104186Y-46366D01*
X104194Y-46358D01*
X104209Y-46350D01*
X103283Y-45963D02*
X103283Y-45723D01*
X103340Y-45723D01*
X103375Y-45734D01*
X103397Y-45757D01*
X103409Y-45780D01*
X103420Y-45826D01*
X103420Y-45860D01*
X103409Y-45906D01*
X103397Y-45928D01*
X103375Y-45951D01*
X103340Y-45963D01*
X103283Y-45963D01*
X96233Y-61471D02*
X96233Y-61311D01*
X96271Y-61311D01*
X96294Y-61319D01*
X96309Y-61334D01*
X96317Y-61349D01*
X96325Y-61380D01*
X96325Y-61402D01*
X96317Y-61433D01*
X96309Y-61448D01*
X96294Y-61463D01*
X96271Y-61471D01*
X96233Y-61471D01*
X96386Y-61326D02*
X96393Y-61319D01*
X96408Y-61311D01*
X96447Y-61311D01*
X96462Y-61319D01*
X96469Y-61326D01*
X96477Y-61342D01*
X96477Y-61357D01*
X96469Y-61380D01*
X96378Y-61471D01*
X96477Y-61471D01*
X96546Y-61456D02*
X96553Y-61463D01*
X96546Y-61471D01*
X96538Y-61463D01*
X96546Y-61456D01*
X96546Y-61471D01*
X96546Y-61372D02*
X96553Y-61380D01*
X96546Y-61387D01*
X96538Y-61380D01*
X96546Y-61372D01*
X96546Y-61387D01*
X96629Y-61471D02*
X96660Y-61471D01*
X96675Y-61463D01*
X96683Y-61456D01*
X96698Y-61433D01*
X96706Y-61402D01*
X96706Y-61342D01*
X96698Y-61326D01*
X96690Y-61319D01*
X96675Y-61311D01*
X96645Y-61311D01*
X96629Y-61319D01*
X96622Y-61326D01*
X96614Y-61342D01*
X96614Y-61380D01*
X96622Y-61395D01*
X96629Y-61402D01*
X96645Y-61410D01*
X96675Y-61410D01*
X96690Y-61402D01*
X96698Y-61395D01*
X96706Y-61380D01*
X95803Y-60923D02*
X95803Y-60683D01*
X95860Y-60683D01*
X95894Y-60695D01*
X95917Y-60718D01*
X95928Y-60741D01*
X95940Y-60786D01*
X95940Y-60821D01*
X95928Y-60866D01*
X95917Y-60889D01*
X95894Y-60912D01*
X95860Y-60923D01*
X95803Y-60923D01*
X110133Y-76432D02*
X110133Y-76272D01*
X110172Y-76272D01*
X110194Y-76279D01*
X110210Y-76295D01*
X110217Y-76310D01*
X110225Y-76340D01*
X110225Y-76363D01*
X110217Y-76394D01*
X110210Y-76409D01*
X110194Y-76424D01*
X110172Y-76432D01*
X110133Y-76432D01*
X110324Y-76272D02*
X110339Y-76272D01*
X110354Y-76279D01*
X110362Y-76287D01*
X110370Y-76302D01*
X110377Y-76333D01*
X110377Y-76371D01*
X110370Y-76401D01*
X110362Y-76416D01*
X110354Y-76424D01*
X110339Y-76432D01*
X110324Y-76432D01*
X110309Y-76424D01*
X110301Y-76416D01*
X110293Y-76401D01*
X110286Y-76371D01*
X110286Y-76333D01*
X110293Y-76302D01*
X110301Y-76287D01*
X110309Y-76279D01*
X110324Y-76272D01*
X110446Y-76416D02*
X110453Y-76424D01*
X110446Y-76432D01*
X110438Y-76424D01*
X110446Y-76416D01*
X110446Y-76432D01*
X110446Y-76333D02*
X110453Y-76340D01*
X110446Y-76348D01*
X110438Y-76340D01*
X110446Y-76333D01*
X110446Y-76348D01*
X110606Y-76432D02*
X110514Y-76432D01*
X110560Y-76432D02*
X110560Y-76272D01*
X110545Y-76295D01*
X110530Y-76310D01*
X110514Y-76317D01*
X110758Y-76432D02*
X110667Y-76432D01*
X110712Y-76432D02*
X110712Y-76272D01*
X110697Y-76295D01*
X110682Y-76310D01*
X110667Y-76317D01*
X109779Y-75884D02*
X109779Y-75644D01*
X109836Y-75644D01*
X109871Y-75655D01*
X109893Y-75678D01*
X109905Y-75701D01*
X109916Y-75747D01*
X109916Y-75781D01*
X109905Y-75827D01*
X109893Y-75850D01*
X109871Y-75873D01*
X109836Y-75884D01*
X109779Y-75884D01*
X94049Y-61098D02*
X94049Y-60938D01*
X94087Y-60938D01*
X94110Y-60946D01*
X94125Y-60961D01*
X94133Y-60977D01*
X94140Y-61007D01*
X94140Y-61030D01*
X94133Y-61060D01*
X94125Y-61076D01*
X94110Y-61091D01*
X94087Y-61098D01*
X94049Y-61098D01*
X94293Y-61098D02*
X94201Y-61098D01*
X94247Y-61098D02*
X94247Y-60938D01*
X94232Y-60961D01*
X94217Y-60977D01*
X94201Y-60984D01*
X94361Y-61083D02*
X94369Y-61091D01*
X94361Y-61098D01*
X94354Y-61091D01*
X94361Y-61083D01*
X94361Y-61098D01*
X94361Y-60999D02*
X94369Y-61007D01*
X94361Y-61015D01*
X94354Y-61007D01*
X94361Y-60999D01*
X94361Y-61015D01*
X94445Y-61098D02*
X94476Y-61098D01*
X94491Y-61091D01*
X94499Y-61083D01*
X94514Y-61060D01*
X94521Y-61030D01*
X94521Y-60969D01*
X94514Y-60954D01*
X94506Y-60946D01*
X94491Y-60938D01*
X94460Y-60938D01*
X94445Y-60946D01*
X94438Y-60954D01*
X94430Y-60969D01*
X94430Y-61007D01*
X94438Y-61022D01*
X94445Y-61030D01*
X94460Y-61037D01*
X94491Y-61037D01*
X94506Y-61030D01*
X94514Y-61022D01*
X94521Y-61007D01*
X94819Y-61711D02*
X94819Y-61471D01*
X94876Y-61471D01*
X94910Y-61482D01*
X94933Y-61505D01*
X94944Y-61528D01*
X94956Y-61574D01*
X94956Y-61608D01*
X94944Y-61654D01*
X94933Y-61677D01*
X94910Y-61699D01*
X94876Y-61711D01*
X94819Y-61711D01*
X96233Y-46510D02*
X96233Y-46350D01*
X96271Y-46350D01*
X96294Y-46358D01*
X96309Y-46373D01*
X96317Y-46388D01*
X96325Y-46419D01*
X96325Y-46442D01*
X96317Y-46472D01*
X96309Y-46488D01*
X96294Y-46503D01*
X96271Y-46510D01*
X96233Y-46510D01*
X96462Y-46404D02*
X96462Y-46510D01*
X96424Y-46343D02*
X96386Y-46457D01*
X96485Y-46457D01*
X96546Y-46495D02*
X96553Y-46503D01*
X96546Y-46510D01*
X96538Y-46503D01*
X96546Y-46495D01*
X96546Y-46510D01*
X96546Y-46411D02*
X96553Y-46419D01*
X96546Y-46427D01*
X96538Y-46419D01*
X96546Y-46411D01*
X96546Y-46427D01*
X96629Y-46510D02*
X96660Y-46510D01*
X96675Y-46503D01*
X96683Y-46495D01*
X96698Y-46472D01*
X96706Y-46442D01*
X96706Y-46381D01*
X96698Y-46366D01*
X96690Y-46358D01*
X96675Y-46350D01*
X96645Y-46350D01*
X96629Y-46358D01*
X96622Y-46366D01*
X96614Y-46381D01*
X96614Y-46419D01*
X96622Y-46434D01*
X96629Y-46442D01*
X96645Y-46449D01*
X96675Y-46449D01*
X96690Y-46442D01*
X96698Y-46434D01*
X96706Y-46419D01*
X95803Y-45963D02*
X95803Y-45723D01*
X95860Y-45723D01*
X95894Y-45734D01*
X95917Y-45757D01*
X95928Y-45780D01*
X95940Y-45826D01*
X95940Y-45860D01*
X95928Y-45906D01*
X95917Y-45928D01*
X95894Y-45951D01*
X95860Y-45963D01*
X95803Y-45963D01*
X90721Y-61471D02*
X90721Y-61311D01*
X90760Y-61311D01*
X90782Y-61319D01*
X90798Y-61334D01*
X90805Y-61349D01*
X90813Y-61380D01*
X90813Y-61402D01*
X90805Y-61433D01*
X90798Y-61448D01*
X90782Y-61463D01*
X90760Y-61471D01*
X90721Y-61471D01*
X90874Y-61326D02*
X90881Y-61319D01*
X90897Y-61311D01*
X90935Y-61311D01*
X90950Y-61319D01*
X90958Y-61326D01*
X90965Y-61342D01*
X90965Y-61357D01*
X90958Y-61380D01*
X90866Y-61471D01*
X90965Y-61471D01*
X91034Y-61456D02*
X91041Y-61463D01*
X91034Y-61471D01*
X91026Y-61463D01*
X91034Y-61456D01*
X91034Y-61471D01*
X91034Y-61372D02*
X91041Y-61380D01*
X91034Y-61387D01*
X91026Y-61380D01*
X91034Y-61372D01*
X91034Y-61387D01*
X91133Y-61380D02*
X91118Y-61372D01*
X91110Y-61364D01*
X91102Y-61349D01*
X91102Y-61342D01*
X91110Y-61326D01*
X91118Y-61319D01*
X91133Y-61311D01*
X91163Y-61311D01*
X91179Y-61319D01*
X91186Y-61326D01*
X91194Y-61342D01*
X91194Y-61349D01*
X91186Y-61364D01*
X91179Y-61372D01*
X91163Y-61380D01*
X91133Y-61380D01*
X91118Y-61387D01*
X91110Y-61395D01*
X91102Y-61410D01*
X91102Y-61441D01*
X91110Y-61456D01*
X91118Y-61463D01*
X91133Y-61471D01*
X91163Y-61471D01*
X91179Y-61463D01*
X91186Y-61456D01*
X91194Y-61441D01*
X91194Y-61410D01*
X91186Y-61395D01*
X91179Y-61387D01*
X91163Y-61380D01*
X90291Y-60923D02*
X90291Y-60683D01*
X90348Y-60683D01*
X90382Y-60695D01*
X90405Y-60718D01*
X90417Y-60741D01*
X90428Y-60786D01*
X90428Y-60821D01*
X90417Y-60866D01*
X90405Y-60889D01*
X90382Y-60912D01*
X90348Y-60923D01*
X90291Y-60923D01*
X88753Y-53991D02*
X88753Y-53831D01*
X88791Y-53831D01*
X88814Y-53838D01*
X88829Y-53854D01*
X88837Y-53869D01*
X88844Y-53899D01*
X88844Y-53922D01*
X88837Y-53953D01*
X88829Y-53968D01*
X88814Y-53983D01*
X88791Y-53991D01*
X88753Y-53991D01*
X88898Y-53831D02*
X88997Y-53831D01*
X88943Y-53892D01*
X88966Y-53892D01*
X88982Y-53899D01*
X88989Y-53907D01*
X88997Y-53922D01*
X88997Y-53960D01*
X88989Y-53975D01*
X88982Y-53983D01*
X88966Y-53991D01*
X88921Y-53991D01*
X88905Y-53983D01*
X88898Y-53975D01*
X89065Y-53975D02*
X89073Y-53983D01*
X89065Y-53991D01*
X89058Y-53983D01*
X89065Y-53975D01*
X89065Y-53991D01*
X89065Y-53892D02*
X89073Y-53899D01*
X89065Y-53907D01*
X89058Y-53899D01*
X89065Y-53892D01*
X89065Y-53907D01*
X89164Y-53899D02*
X89149Y-53892D01*
X89142Y-53884D01*
X89134Y-53869D01*
X89134Y-53861D01*
X89142Y-53846D01*
X89149Y-53838D01*
X89164Y-53831D01*
X89195Y-53831D01*
X89210Y-53838D01*
X89218Y-53846D01*
X89225Y-53861D01*
X89225Y-53869D01*
X89218Y-53884D01*
X89210Y-53892D01*
X89195Y-53899D01*
X89164Y-53899D01*
X89149Y-53907D01*
X89142Y-53915D01*
X89134Y-53930D01*
X89134Y-53960D01*
X89142Y-53975D01*
X89149Y-53983D01*
X89164Y-53991D01*
X89195Y-53991D01*
X89210Y-53983D01*
X89218Y-53975D01*
X89225Y-53960D01*
X89225Y-53930D01*
X89218Y-53915D01*
X89210Y-53907D01*
X89195Y-53899D01*
X88322Y-53443D02*
X88322Y-53203D01*
X88380Y-53203D01*
X88414Y-53215D01*
X88437Y-53237D01*
X88448Y-53260D01*
X88460Y-53306D01*
X88460Y-53340D01*
X88448Y-53386D01*
X88437Y-53409D01*
X88414Y-53432D01*
X88380Y-53443D01*
X88322Y-53443D01*
X86569Y-61098D02*
X86569Y-60938D01*
X86607Y-60938D01*
X86630Y-60946D01*
X86645Y-60961D01*
X86653Y-60977D01*
X86660Y-61007D01*
X86660Y-61030D01*
X86653Y-61060D01*
X86645Y-61076D01*
X86630Y-61091D01*
X86607Y-61098D01*
X86569Y-61098D01*
X86813Y-61098D02*
X86721Y-61098D01*
X86767Y-61098D02*
X86767Y-60938D01*
X86752Y-60961D01*
X86736Y-60977D01*
X86721Y-60984D01*
X86881Y-61083D02*
X86889Y-61091D01*
X86881Y-61098D01*
X86873Y-61091D01*
X86881Y-61083D01*
X86881Y-61098D01*
X86881Y-60999D02*
X86889Y-61007D01*
X86881Y-61015D01*
X86873Y-61007D01*
X86881Y-60999D01*
X86881Y-61015D01*
X86980Y-61007D02*
X86965Y-60999D01*
X86957Y-60992D01*
X86950Y-60977D01*
X86950Y-60969D01*
X86957Y-60954D01*
X86965Y-60946D01*
X86980Y-60938D01*
X87011Y-60938D01*
X87026Y-60946D01*
X87033Y-60954D01*
X87041Y-60969D01*
X87041Y-60977D01*
X87033Y-60992D01*
X87026Y-60999D01*
X87011Y-61007D01*
X86980Y-61007D01*
X86965Y-61015D01*
X86957Y-61022D01*
X86950Y-61037D01*
X86950Y-61068D01*
X86957Y-61083D01*
X86965Y-61091D01*
X86980Y-61098D01*
X87011Y-61098D01*
X87026Y-61091D01*
X87033Y-61083D01*
X87041Y-61068D01*
X87041Y-61037D01*
X87033Y-61022D01*
X87026Y-61015D01*
X87011Y-61007D01*
X87338Y-61711D02*
X87338Y-61471D01*
X87395Y-61471D01*
X87430Y-61482D01*
X87453Y-61505D01*
X87464Y-61528D01*
X87475Y-61574D01*
X87475Y-61608D01*
X87464Y-61654D01*
X87453Y-61677D01*
X87430Y-61699D01*
X87395Y-61711D01*
X87338Y-61711D01*
X89521Y-45350D02*
X89521Y-45190D01*
X89560Y-45190D01*
X89582Y-45198D01*
X89598Y-45213D01*
X89605Y-45228D01*
X89613Y-45259D01*
X89613Y-45282D01*
X89605Y-45312D01*
X89598Y-45328D01*
X89582Y-45343D01*
X89560Y-45350D01*
X89521Y-45350D01*
X89750Y-45244D02*
X89750Y-45350D01*
X89712Y-45183D02*
X89674Y-45297D01*
X89773Y-45297D01*
X89834Y-45335D02*
X89841Y-45343D01*
X89834Y-45350D01*
X89826Y-45343D01*
X89834Y-45335D01*
X89834Y-45350D01*
X89834Y-45251D02*
X89841Y-45259D01*
X89834Y-45267D01*
X89826Y-45259D01*
X89834Y-45251D01*
X89834Y-45267D01*
X89933Y-45259D02*
X89918Y-45251D01*
X89910Y-45244D01*
X89902Y-45228D01*
X89902Y-45221D01*
X89910Y-45206D01*
X89918Y-45198D01*
X89933Y-45190D01*
X89963Y-45190D01*
X89979Y-45198D01*
X89986Y-45206D01*
X89994Y-45221D01*
X89994Y-45228D01*
X89986Y-45244D01*
X89979Y-45251D01*
X89963Y-45259D01*
X89933Y-45259D01*
X89918Y-45267D01*
X89910Y-45274D01*
X89902Y-45289D01*
X89902Y-45320D01*
X89910Y-45335D01*
X89918Y-45343D01*
X89933Y-45350D01*
X89963Y-45350D01*
X89979Y-45343D01*
X89986Y-45335D01*
X89994Y-45320D01*
X89994Y-45289D01*
X89986Y-45274D01*
X89979Y-45267D01*
X89963Y-45259D01*
X90291Y-45963D02*
X90291Y-45723D01*
X90348Y-45723D01*
X90382Y-45734D01*
X90405Y-45757D01*
X90417Y-45780D01*
X90428Y-45826D01*
X90428Y-45860D01*
X90417Y-45906D01*
X90405Y-45928D01*
X90382Y-45951D01*
X90348Y-45963D01*
X90291Y-45963D01*
X83241Y-61471D02*
X83241Y-61311D01*
X83279Y-61311D01*
X83302Y-61319D01*
X83317Y-61334D01*
X83325Y-61349D01*
X83333Y-61380D01*
X83333Y-61402D01*
X83325Y-61433D01*
X83317Y-61448D01*
X83302Y-61463D01*
X83279Y-61471D01*
X83241Y-61471D01*
X83394Y-61326D02*
X83401Y-61319D01*
X83416Y-61311D01*
X83454Y-61311D01*
X83470Y-61319D01*
X83477Y-61326D01*
X83485Y-61342D01*
X83485Y-61357D01*
X83477Y-61380D01*
X83386Y-61471D01*
X83485Y-61471D01*
X83554Y-61456D02*
X83561Y-61463D01*
X83554Y-61471D01*
X83546Y-61463D01*
X83554Y-61456D01*
X83554Y-61471D01*
X83554Y-61372D02*
X83561Y-61380D01*
X83554Y-61387D01*
X83546Y-61380D01*
X83554Y-61372D01*
X83554Y-61387D01*
X83614Y-61311D02*
X83721Y-61311D01*
X83653Y-61471D01*
X82811Y-60923D02*
X82811Y-60683D01*
X82868Y-60683D01*
X82902Y-60695D01*
X82925Y-60718D01*
X82936Y-60741D01*
X82948Y-60786D01*
X82948Y-60821D01*
X82936Y-60866D01*
X82925Y-60889D01*
X82902Y-60912D01*
X82868Y-60923D01*
X82811Y-60923D01*
X125881Y-68951D02*
X125881Y-68791D01*
X125920Y-68791D01*
X125942Y-68799D01*
X125958Y-68814D01*
X125965Y-68829D01*
X125973Y-68860D01*
X125973Y-68883D01*
X125965Y-68913D01*
X125958Y-68928D01*
X125942Y-68944D01*
X125920Y-68951D01*
X125881Y-68951D01*
X126125Y-68951D02*
X126034Y-68951D01*
X126080Y-68951D02*
X126080Y-68791D01*
X126064Y-68814D01*
X126049Y-68829D01*
X126034Y-68837D01*
X126194Y-68936D02*
X126201Y-68944D01*
X126194Y-68951D01*
X126186Y-68944D01*
X126194Y-68936D01*
X126194Y-68951D01*
X126194Y-68852D02*
X126201Y-68860D01*
X126194Y-68868D01*
X126186Y-68860D01*
X126194Y-68852D01*
X126194Y-68868D01*
X126354Y-68951D02*
X126262Y-68951D01*
X126308Y-68951D02*
X126308Y-68791D01*
X126293Y-68814D01*
X126278Y-68829D01*
X126262Y-68837D01*
X126407Y-68791D02*
X126506Y-68791D01*
X126453Y-68852D01*
X126476Y-68852D01*
X126491Y-68860D01*
X126499Y-68868D01*
X126506Y-68883D01*
X126506Y-68921D01*
X126499Y-68936D01*
X126491Y-68944D01*
X126476Y-68951D01*
X126430Y-68951D01*
X126415Y-68944D01*
X126407Y-68936D01*
X125527Y-68404D02*
X125527Y-68164D01*
X125584Y-68164D01*
X125619Y-68175D01*
X125641Y-68198D01*
X125653Y-68221D01*
X125664Y-68267D01*
X125664Y-68301D01*
X125653Y-68347D01*
X125641Y-68369D01*
X125619Y-68392D01*
X125584Y-68404D01*
X125527Y-68404D01*
X133559Y-61471D02*
X133559Y-61311D01*
X133597Y-61311D01*
X133620Y-61319D01*
X133635Y-61334D01*
X133642Y-61349D01*
X133650Y-61380D01*
X133650Y-61402D01*
X133642Y-61433D01*
X133635Y-61448D01*
X133620Y-61463D01*
X133597Y-61471D01*
X133559Y-61471D01*
X133711Y-61326D02*
X133719Y-61319D01*
X133734Y-61311D01*
X133772Y-61311D01*
X133787Y-61319D01*
X133795Y-61326D01*
X133802Y-61342D01*
X133802Y-61357D01*
X133795Y-61380D01*
X133703Y-61471D01*
X133802Y-61471D01*
X133871Y-61456D02*
X133879Y-61463D01*
X133871Y-61471D01*
X133863Y-61463D01*
X133871Y-61456D01*
X133871Y-61471D01*
X133871Y-61372D02*
X133879Y-61380D01*
X133871Y-61387D01*
X133863Y-61380D01*
X133871Y-61372D01*
X133871Y-61387D01*
X134031Y-61471D02*
X133940Y-61471D01*
X133985Y-61471D02*
X133985Y-61311D01*
X133970Y-61334D01*
X133955Y-61349D01*
X133940Y-61357D01*
X134168Y-61364D02*
X134168Y-61471D01*
X134130Y-61303D02*
X134092Y-61418D01*
X134191Y-61418D01*
X133204Y-60923D02*
X133204Y-60683D01*
X133262Y-60683D01*
X133296Y-60695D01*
X133319Y-60718D01*
X133330Y-60741D01*
X133342Y-60786D01*
X133342Y-60821D01*
X133330Y-60866D01*
X133319Y-60889D01*
X133296Y-60912D01*
X133262Y-60923D01*
X133204Y-60923D01*
X133362Y-53991D02*
X133362Y-53831D01*
X133400Y-53831D01*
X133423Y-53838D01*
X133438Y-53854D01*
X133446Y-53869D01*
X133453Y-53899D01*
X133453Y-53922D01*
X133446Y-53953D01*
X133438Y-53968D01*
X133423Y-53983D01*
X133400Y-53991D01*
X133362Y-53991D01*
X133507Y-53831D02*
X133606Y-53831D01*
X133552Y-53892D01*
X133575Y-53892D01*
X133590Y-53899D01*
X133598Y-53907D01*
X133606Y-53922D01*
X133606Y-53960D01*
X133598Y-53975D01*
X133590Y-53983D01*
X133575Y-53991D01*
X133529Y-53991D01*
X133514Y-53983D01*
X133507Y-53975D01*
X133674Y-53975D02*
X133682Y-53983D01*
X133674Y-53991D01*
X133667Y-53983D01*
X133674Y-53975D01*
X133674Y-53991D01*
X133674Y-53892D02*
X133682Y-53899D01*
X133674Y-53907D01*
X133667Y-53899D01*
X133674Y-53892D01*
X133674Y-53907D01*
X133834Y-53991D02*
X133743Y-53991D01*
X133788Y-53991D02*
X133788Y-53831D01*
X133773Y-53854D01*
X133758Y-53869D01*
X133743Y-53876D01*
X133971Y-53884D02*
X133971Y-53991D01*
X133933Y-53823D02*
X133895Y-53937D01*
X133994Y-53937D01*
X133008Y-53443D02*
X133008Y-53203D01*
X133065Y-53203D01*
X133099Y-53215D01*
X133122Y-53237D01*
X133133Y-53260D01*
X133145Y-53306D01*
X133145Y-53340D01*
X133133Y-53386D01*
X133122Y-53409D01*
X133099Y-53432D01*
X133065Y-53443D01*
X133008Y-53443D01*
X133362Y-76432D02*
X133362Y-76272D01*
X133400Y-76272D01*
X133423Y-76279D01*
X133438Y-76295D01*
X133446Y-76310D01*
X133453Y-76340D01*
X133453Y-76363D01*
X133446Y-76394D01*
X133438Y-76409D01*
X133423Y-76424D01*
X133400Y-76432D01*
X133362Y-76432D01*
X133552Y-76272D02*
X133568Y-76272D01*
X133583Y-76279D01*
X133590Y-76287D01*
X133598Y-76302D01*
X133606Y-76333D01*
X133606Y-76371D01*
X133598Y-76401D01*
X133590Y-76416D01*
X133583Y-76424D01*
X133568Y-76432D01*
X133552Y-76432D01*
X133537Y-76424D01*
X133529Y-76416D01*
X133522Y-76401D01*
X133514Y-76371D01*
X133514Y-76333D01*
X133522Y-76302D01*
X133529Y-76287D01*
X133537Y-76279D01*
X133552Y-76272D01*
X133674Y-76416D02*
X133682Y-76424D01*
X133674Y-76432D01*
X133667Y-76424D01*
X133674Y-76416D01*
X133674Y-76432D01*
X133674Y-76333D02*
X133682Y-76340D01*
X133674Y-76348D01*
X133667Y-76340D01*
X133674Y-76333D01*
X133674Y-76348D01*
X133834Y-76432D02*
X133743Y-76432D01*
X133788Y-76432D02*
X133788Y-76272D01*
X133773Y-76295D01*
X133758Y-76310D01*
X133743Y-76317D01*
X133971Y-76325D02*
X133971Y-76432D01*
X133933Y-76264D02*
X133895Y-76378D01*
X133994Y-76378D01*
X133008Y-75884D02*
X133008Y-75644D01*
X133065Y-75644D01*
X133099Y-75655D01*
X133122Y-75678D01*
X133133Y-75701D01*
X133145Y-75747D01*
X133145Y-75781D01*
X133133Y-75827D01*
X133122Y-75850D01*
X133099Y-75873D01*
X133065Y-75884D01*
X133008Y-75884D01*
X133952Y-68951D02*
X133952Y-68791D01*
X133990Y-68791D01*
X134013Y-68799D01*
X134029Y-68814D01*
X134036Y-68829D01*
X134044Y-68860D01*
X134044Y-68883D01*
X134036Y-68913D01*
X134029Y-68928D01*
X134013Y-68944D01*
X133990Y-68951D01*
X133952Y-68951D01*
X134196Y-68951D02*
X134105Y-68951D01*
X134150Y-68951D02*
X134150Y-68791D01*
X134135Y-68814D01*
X134120Y-68829D01*
X134105Y-68837D01*
X134265Y-68936D02*
X134272Y-68944D01*
X134265Y-68951D01*
X134257Y-68944D01*
X134265Y-68936D01*
X134265Y-68951D01*
X134265Y-68852D02*
X134272Y-68860D01*
X134265Y-68868D01*
X134257Y-68860D01*
X134265Y-68852D01*
X134265Y-68868D01*
X134425Y-68951D02*
X134333Y-68951D01*
X134379Y-68951D02*
X134379Y-68791D01*
X134364Y-68814D01*
X134349Y-68829D01*
X134333Y-68837D01*
X134562Y-68845D02*
X134562Y-68951D01*
X134524Y-68784D02*
X134486Y-68898D01*
X134585Y-68898D01*
X133598Y-68404D02*
X133598Y-68164D01*
X133655Y-68164D01*
X133689Y-68175D01*
X133712Y-68198D01*
X133724Y-68221D01*
X133735Y-68267D01*
X133735Y-68301D01*
X133724Y-68347D01*
X133712Y-68369D01*
X133689Y-68392D01*
X133655Y-68404D01*
X133598Y-68404D01*
X133362Y-46510D02*
X133362Y-46350D01*
X133400Y-46350D01*
X133423Y-46358D01*
X133438Y-46373D01*
X133446Y-46388D01*
X133453Y-46419D01*
X133453Y-46442D01*
X133446Y-46472D01*
X133438Y-46488D01*
X133423Y-46503D01*
X133400Y-46510D01*
X133362Y-46510D01*
X133590Y-46404D02*
X133590Y-46510D01*
X133552Y-46343D02*
X133514Y-46457D01*
X133613Y-46457D01*
X133674Y-46495D02*
X133682Y-46503D01*
X133674Y-46510D01*
X133667Y-46503D01*
X133674Y-46495D01*
X133674Y-46510D01*
X133674Y-46411D02*
X133682Y-46419D01*
X133674Y-46427D01*
X133667Y-46419D01*
X133674Y-46411D01*
X133674Y-46427D01*
X133834Y-46510D02*
X133743Y-46510D01*
X133788Y-46510D02*
X133788Y-46350D01*
X133773Y-46373D01*
X133758Y-46388D01*
X133743Y-46396D01*
X133971Y-46404D02*
X133971Y-46510D01*
X133933Y-46343D02*
X133895Y-46457D01*
X133994Y-46457D01*
X133008Y-45963D02*
X133008Y-45723D01*
X133065Y-45723D01*
X133099Y-45734D01*
X133122Y-45757D01*
X133133Y-45780D01*
X133145Y-45826D01*
X133145Y-45860D01*
X133133Y-45906D01*
X133122Y-45928D01*
X133099Y-45951D01*
X133065Y-45963D01*
X133008Y-45963D01*
X123322Y-61471D02*
X123322Y-61311D01*
X123361Y-61311D01*
X123383Y-61319D01*
X123399Y-61334D01*
X123406Y-61349D01*
X123414Y-61380D01*
X123414Y-61402D01*
X123406Y-61433D01*
X123399Y-61448D01*
X123383Y-61463D01*
X123361Y-61471D01*
X123322Y-61471D01*
X123475Y-61326D02*
X123482Y-61319D01*
X123498Y-61311D01*
X123536Y-61311D01*
X123551Y-61319D01*
X123559Y-61326D01*
X123566Y-61342D01*
X123566Y-61357D01*
X123559Y-61380D01*
X123467Y-61471D01*
X123566Y-61471D01*
X123635Y-61456D02*
X123642Y-61463D01*
X123635Y-61471D01*
X123627Y-61463D01*
X123635Y-61456D01*
X123635Y-61471D01*
X123635Y-61372D02*
X123642Y-61380D01*
X123635Y-61387D01*
X123627Y-61380D01*
X123635Y-61372D01*
X123635Y-61387D01*
X123795Y-61471D02*
X123703Y-61471D01*
X123749Y-61471D02*
X123749Y-61311D01*
X123734Y-61334D01*
X123719Y-61349D01*
X123703Y-61357D01*
X123848Y-61311D02*
X123947Y-61311D01*
X123894Y-61372D01*
X123917Y-61372D01*
X123932Y-61380D01*
X123940Y-61387D01*
X123947Y-61402D01*
X123947Y-61441D01*
X123940Y-61456D01*
X123932Y-61463D01*
X123917Y-61471D01*
X123871Y-61471D01*
X123856Y-61463D01*
X123848Y-61456D01*
X122968Y-60923D02*
X122968Y-60683D01*
X123025Y-60683D01*
X123060Y-60695D01*
X123082Y-60718D01*
X123094Y-60741D01*
X123105Y-60786D01*
X123105Y-60821D01*
X123094Y-60866D01*
X123082Y-60889D01*
X123060Y-60912D01*
X123025Y-60923D01*
X122968Y-60923D01*
X126078Y-53991D02*
X126078Y-53831D01*
X126116Y-53831D01*
X126139Y-53838D01*
X126155Y-53854D01*
X126162Y-53869D01*
X126170Y-53899D01*
X126170Y-53922D01*
X126162Y-53953D01*
X126155Y-53968D01*
X126139Y-53983D01*
X126116Y-53991D01*
X126078Y-53991D01*
X126223Y-53831D02*
X126322Y-53831D01*
X126269Y-53892D01*
X126292Y-53892D01*
X126307Y-53899D01*
X126315Y-53907D01*
X126322Y-53922D01*
X126322Y-53960D01*
X126315Y-53975D01*
X126307Y-53983D01*
X126292Y-53991D01*
X126246Y-53991D01*
X126231Y-53983D01*
X126223Y-53975D01*
X126391Y-53975D02*
X126398Y-53983D01*
X126391Y-53991D01*
X126383Y-53983D01*
X126391Y-53975D01*
X126391Y-53991D01*
X126391Y-53892D02*
X126398Y-53899D01*
X126391Y-53907D01*
X126383Y-53899D01*
X126391Y-53892D01*
X126391Y-53907D01*
X126551Y-53991D02*
X126459Y-53991D01*
X126505Y-53991D02*
X126505Y-53831D01*
X126490Y-53854D01*
X126475Y-53869D01*
X126459Y-53876D01*
X126604Y-53831D02*
X126703Y-53831D01*
X126650Y-53892D01*
X126673Y-53892D01*
X126688Y-53899D01*
X126695Y-53907D01*
X126703Y-53922D01*
X126703Y-53960D01*
X126695Y-53975D01*
X126688Y-53983D01*
X126673Y-53991D01*
X126627Y-53991D01*
X126612Y-53983D01*
X126604Y-53975D01*
X125724Y-53443D02*
X125724Y-53203D01*
X125781Y-53203D01*
X125815Y-53215D01*
X125838Y-53237D01*
X125850Y-53260D01*
X125861Y-53306D01*
X125861Y-53340D01*
X125850Y-53386D01*
X125838Y-53409D01*
X125815Y-53432D01*
X125781Y-53443D01*
X125724Y-53443D01*
X125881Y-76432D02*
X125881Y-76272D01*
X125920Y-76272D01*
X125942Y-76279D01*
X125958Y-76295D01*
X125965Y-76310D01*
X125973Y-76340D01*
X125973Y-76363D01*
X125965Y-76394D01*
X125958Y-76409D01*
X125942Y-76424D01*
X125920Y-76432D01*
X125881Y-76432D01*
X126072Y-76272D02*
X126087Y-76272D01*
X126102Y-76279D01*
X126110Y-76287D01*
X126118Y-76302D01*
X126125Y-76333D01*
X126125Y-76371D01*
X126118Y-76401D01*
X126110Y-76416D01*
X126102Y-76424D01*
X126087Y-76432D01*
X126072Y-76432D01*
X126057Y-76424D01*
X126049Y-76416D01*
X126041Y-76401D01*
X126034Y-76371D01*
X126034Y-76333D01*
X126041Y-76302D01*
X126049Y-76287D01*
X126057Y-76279D01*
X126072Y-76272D01*
X126194Y-76416D02*
X126201Y-76424D01*
X126194Y-76432D01*
X126186Y-76424D01*
X126194Y-76416D01*
X126194Y-76432D01*
X126194Y-76333D02*
X126201Y-76340D01*
X126194Y-76348D01*
X126186Y-76340D01*
X126194Y-76333D01*
X126194Y-76348D01*
X126354Y-76432D02*
X126262Y-76432D01*
X126308Y-76432D02*
X126308Y-76272D01*
X126293Y-76295D01*
X126278Y-76310D01*
X126262Y-76317D01*
X126407Y-76272D02*
X126506Y-76272D01*
X126453Y-76333D01*
X126476Y-76333D01*
X126491Y-76340D01*
X126499Y-76348D01*
X126506Y-76363D01*
X126506Y-76401D01*
X126499Y-76416D01*
X126491Y-76424D01*
X126476Y-76432D01*
X126430Y-76432D01*
X126415Y-76424D01*
X126407Y-76416D01*
X125527Y-75884D02*
X125527Y-75644D01*
X125584Y-75644D01*
X125619Y-75655D01*
X125641Y-75678D01*
X125653Y-75701D01*
X125664Y-75747D01*
X125664Y-75781D01*
X125653Y-75827D01*
X125641Y-75850D01*
X125619Y-75873D01*
X125584Y-75884D01*
X125527Y-75884D01*
X81273Y-53991D02*
X81273Y-53831D01*
X81311Y-53831D01*
X81334Y-53838D01*
X81349Y-53854D01*
X81356Y-53869D01*
X81364Y-53899D01*
X81364Y-53922D01*
X81356Y-53953D01*
X81349Y-53968D01*
X81334Y-53983D01*
X81311Y-53991D01*
X81273Y-53991D01*
X81417Y-53831D02*
X81516Y-53831D01*
X81463Y-53892D01*
X81486Y-53892D01*
X81501Y-53899D01*
X81509Y-53907D01*
X81516Y-53922D01*
X81516Y-53960D01*
X81509Y-53975D01*
X81501Y-53983D01*
X81486Y-53991D01*
X81440Y-53991D01*
X81425Y-53983D01*
X81417Y-53975D01*
X81585Y-53975D02*
X81593Y-53983D01*
X81585Y-53991D01*
X81577Y-53983D01*
X81585Y-53975D01*
X81585Y-53991D01*
X81585Y-53892D02*
X81593Y-53899D01*
X81585Y-53907D01*
X81577Y-53899D01*
X81585Y-53892D01*
X81585Y-53907D01*
X81646Y-53831D02*
X81753Y-53831D01*
X81684Y-53991D01*
X80842Y-53443D02*
X80842Y-53203D01*
X80899Y-53203D01*
X80934Y-53215D01*
X80956Y-53237D01*
X80968Y-53260D01*
X80979Y-53306D01*
X80979Y-53340D01*
X80968Y-53386D01*
X80956Y-53409D01*
X80934Y-53432D01*
X80899Y-53443D01*
X80842Y-53443D01*
X126472Y-46510D02*
X126472Y-46350D01*
X126510Y-46350D01*
X126533Y-46358D01*
X126548Y-46373D01*
X126556Y-46388D01*
X126563Y-46419D01*
X126563Y-46442D01*
X126556Y-46472D01*
X126548Y-46488D01*
X126533Y-46503D01*
X126510Y-46510D01*
X126472Y-46510D01*
X126701Y-46404D02*
X126701Y-46510D01*
X126663Y-46343D02*
X126624Y-46457D01*
X126723Y-46457D01*
X126784Y-46495D02*
X126792Y-46503D01*
X126784Y-46510D01*
X126777Y-46503D01*
X126784Y-46495D01*
X126784Y-46510D01*
X126784Y-46411D02*
X126792Y-46419D01*
X126784Y-46427D01*
X126777Y-46419D01*
X126784Y-46411D01*
X126784Y-46427D01*
X126944Y-46510D02*
X126853Y-46510D01*
X126899Y-46510D02*
X126899Y-46350D01*
X126883Y-46373D01*
X126868Y-46388D01*
X126853Y-46396D01*
X126998Y-46350D02*
X127097Y-46350D01*
X127043Y-46411D01*
X127066Y-46411D01*
X127082Y-46419D01*
X127089Y-46427D01*
X127097Y-46442D01*
X127097Y-46480D01*
X127089Y-46495D01*
X127082Y-46503D01*
X127066Y-46510D01*
X127021Y-46510D01*
X127005Y-46503D01*
X126998Y-46495D01*
X126118Y-45963D02*
X126118Y-45723D01*
X126175Y-45723D01*
X126209Y-45734D01*
X126232Y-45757D01*
X126243Y-45780D01*
X126255Y-45826D01*
X126255Y-45860D01*
X126243Y-45906D01*
X126232Y-45928D01*
X126209Y-45951D01*
X126175Y-45963D01*
X126118Y-45963D01*
X118598Y-53991D02*
X118598Y-53831D01*
X118636Y-53831D01*
X118659Y-53838D01*
X118674Y-53854D01*
X118682Y-53869D01*
X118689Y-53899D01*
X118689Y-53922D01*
X118682Y-53953D01*
X118674Y-53968D01*
X118659Y-53983D01*
X118636Y-53991D01*
X118598Y-53991D01*
X118743Y-53831D02*
X118842Y-53831D01*
X118788Y-53892D01*
X118811Y-53892D01*
X118827Y-53899D01*
X118834Y-53907D01*
X118842Y-53922D01*
X118842Y-53960D01*
X118834Y-53975D01*
X118827Y-53983D01*
X118811Y-53991D01*
X118766Y-53991D01*
X118750Y-53983D01*
X118743Y-53975D01*
X118910Y-53975D02*
X118918Y-53983D01*
X118910Y-53991D01*
X118903Y-53983D01*
X118910Y-53975D01*
X118910Y-53991D01*
X118910Y-53892D02*
X118918Y-53899D01*
X118910Y-53907D01*
X118903Y-53899D01*
X118910Y-53892D01*
X118910Y-53907D01*
X119070Y-53991D02*
X118979Y-53991D01*
X119025Y-53991D02*
X119025Y-53831D01*
X119009Y-53854D01*
X118994Y-53869D01*
X118979Y-53876D01*
X119131Y-53846D02*
X119139Y-53838D01*
X119154Y-53831D01*
X119192Y-53831D01*
X119208Y-53838D01*
X119215Y-53846D01*
X119223Y-53861D01*
X119223Y-53876D01*
X119215Y-53899D01*
X119124Y-53991D01*
X119223Y-53991D01*
X118244Y-53443D02*
X118244Y-53203D01*
X118301Y-53203D01*
X118335Y-53215D01*
X118358Y-53237D01*
X118369Y-53260D01*
X118381Y-53306D01*
X118381Y-53340D01*
X118369Y-53386D01*
X118358Y-53409D01*
X118335Y-53432D01*
X118301Y-53443D01*
X118244Y-53443D01*
X118401Y-76432D02*
X118401Y-76272D01*
X118439Y-76272D01*
X118462Y-76279D01*
X118477Y-76295D01*
X118485Y-76310D01*
X118493Y-76340D01*
X118493Y-76363D01*
X118485Y-76394D01*
X118477Y-76409D01*
X118462Y-76424D01*
X118439Y-76432D01*
X118401Y-76432D01*
X118592Y-76272D02*
X118607Y-76272D01*
X118622Y-76279D01*
X118630Y-76287D01*
X118637Y-76302D01*
X118645Y-76333D01*
X118645Y-76371D01*
X118637Y-76401D01*
X118630Y-76416D01*
X118622Y-76424D01*
X118607Y-76432D01*
X118592Y-76432D01*
X118576Y-76424D01*
X118569Y-76416D01*
X118561Y-76401D01*
X118554Y-76371D01*
X118554Y-76333D01*
X118561Y-76302D01*
X118569Y-76287D01*
X118576Y-76279D01*
X118592Y-76272D01*
X118714Y-76416D02*
X118721Y-76424D01*
X118714Y-76432D01*
X118706Y-76424D01*
X118714Y-76416D01*
X118714Y-76432D01*
X118714Y-76333D02*
X118721Y-76340D01*
X118714Y-76348D01*
X118706Y-76340D01*
X118714Y-76333D01*
X118714Y-76348D01*
X118874Y-76432D02*
X118782Y-76432D01*
X118828Y-76432D02*
X118828Y-76272D01*
X118813Y-76295D01*
X118797Y-76310D01*
X118782Y-76317D01*
X118934Y-76287D02*
X118942Y-76279D01*
X118957Y-76272D01*
X118995Y-76272D01*
X119011Y-76279D01*
X119018Y-76287D01*
X119026Y-76302D01*
X119026Y-76317D01*
X119018Y-76340D01*
X118927Y-76432D01*
X119026Y-76432D01*
X118047Y-75884D02*
X118047Y-75644D01*
X118104Y-75644D01*
X118138Y-75655D01*
X118161Y-75678D01*
X118173Y-75701D01*
X118184Y-75747D01*
X118184Y-75781D01*
X118173Y-75827D01*
X118161Y-75850D01*
X118138Y-75873D01*
X118104Y-75884D01*
X118047Y-75884D01*
X117614Y-68951D02*
X117614Y-68791D01*
X117652Y-68791D01*
X117675Y-68799D01*
X117690Y-68814D01*
X117698Y-68829D01*
X117705Y-68860D01*
X117705Y-68883D01*
X117698Y-68913D01*
X117690Y-68928D01*
X117675Y-68944D01*
X117652Y-68951D01*
X117614Y-68951D01*
X117858Y-68951D02*
X117766Y-68951D01*
X117812Y-68951D02*
X117812Y-68791D01*
X117797Y-68814D01*
X117781Y-68829D01*
X117766Y-68837D01*
X117926Y-68936D02*
X117934Y-68944D01*
X117926Y-68951D01*
X117919Y-68944D01*
X117926Y-68936D01*
X117926Y-68951D01*
X117926Y-68852D02*
X117934Y-68860D01*
X117926Y-68868D01*
X117919Y-68860D01*
X117926Y-68852D01*
X117926Y-68868D01*
X118086Y-68951D02*
X117995Y-68951D01*
X118040Y-68951D02*
X118040Y-68791D01*
X118025Y-68814D01*
X118010Y-68829D01*
X117995Y-68837D01*
X118147Y-68807D02*
X118155Y-68799D01*
X118170Y-68791D01*
X118208Y-68791D01*
X118223Y-68799D01*
X118231Y-68807D01*
X118239Y-68822D01*
X118239Y-68837D01*
X118231Y-68860D01*
X118139Y-68951D01*
X118239Y-68951D01*
X117259Y-68404D02*
X117259Y-68164D01*
X117317Y-68164D01*
X117351Y-68175D01*
X117374Y-68198D01*
X117385Y-68221D01*
X117397Y-68267D01*
X117397Y-68301D01*
X117385Y-68347D01*
X117374Y-68369D01*
X117351Y-68392D01*
X117317Y-68404D01*
X117259Y-68404D01*
X118401Y-46510D02*
X118401Y-46350D01*
X118439Y-46350D01*
X118462Y-46358D01*
X118477Y-46373D01*
X118485Y-46388D01*
X118493Y-46419D01*
X118493Y-46442D01*
X118485Y-46472D01*
X118477Y-46488D01*
X118462Y-46503D01*
X118439Y-46510D01*
X118401Y-46510D01*
X118630Y-46404D02*
X118630Y-46510D01*
X118592Y-46343D02*
X118554Y-46457D01*
X118653Y-46457D01*
X118714Y-46495D02*
X118721Y-46503D01*
X118714Y-46510D01*
X118706Y-46503D01*
X118714Y-46495D01*
X118714Y-46510D01*
X118714Y-46411D02*
X118721Y-46419D01*
X118714Y-46427D01*
X118706Y-46419D01*
X118714Y-46411D01*
X118714Y-46427D01*
X118874Y-46510D02*
X118782Y-46510D01*
X118828Y-46510D02*
X118828Y-46350D01*
X118813Y-46373D01*
X118797Y-46388D01*
X118782Y-46396D01*
X118934Y-46366D02*
X118942Y-46358D01*
X118957Y-46350D01*
X118995Y-46350D01*
X119011Y-46358D01*
X119018Y-46366D01*
X119026Y-46381D01*
X119026Y-46396D01*
X119018Y-46419D01*
X118927Y-46510D01*
X119026Y-46510D01*
X118047Y-45963D02*
X118047Y-45723D01*
X118104Y-45723D01*
X118138Y-45734D01*
X118161Y-45757D01*
X118173Y-45780D01*
X118184Y-45826D01*
X118184Y-45860D01*
X118173Y-45906D01*
X118161Y-45928D01*
X118138Y-45951D01*
X118104Y-45963D01*
X118047Y-45963D01*
X113086Y-61471D02*
X113086Y-61311D01*
X113124Y-61311D01*
X113147Y-61319D01*
X113162Y-61334D01*
X113170Y-61349D01*
X113178Y-61380D01*
X113178Y-61402D01*
X113170Y-61433D01*
X113162Y-61448D01*
X113147Y-61463D01*
X113124Y-61471D01*
X113086Y-61471D01*
X113239Y-61326D02*
X113246Y-61319D01*
X113261Y-61311D01*
X113300Y-61311D01*
X113315Y-61319D01*
X113322Y-61326D01*
X113330Y-61342D01*
X113330Y-61357D01*
X113322Y-61380D01*
X113231Y-61471D01*
X113330Y-61471D01*
X113399Y-61456D02*
X113406Y-61463D01*
X113399Y-61471D01*
X113391Y-61463D01*
X113399Y-61456D01*
X113399Y-61471D01*
X113399Y-61372D02*
X113406Y-61380D01*
X113399Y-61387D01*
X113391Y-61380D01*
X113399Y-61372D01*
X113399Y-61387D01*
X113559Y-61471D02*
X113467Y-61471D01*
X113513Y-61471D02*
X113513Y-61311D01*
X113498Y-61334D01*
X113482Y-61349D01*
X113467Y-61357D01*
X113711Y-61471D02*
X113620Y-61471D01*
X113665Y-61471D02*
X113665Y-61311D01*
X113650Y-61334D01*
X113635Y-61349D01*
X113620Y-61357D01*
X112732Y-60923D02*
X112732Y-60683D01*
X112789Y-60683D01*
X112823Y-60695D01*
X112846Y-60718D01*
X112858Y-60741D01*
X112869Y-60786D01*
X112869Y-60821D01*
X112858Y-60866D01*
X112846Y-60889D01*
X112823Y-60912D01*
X112789Y-60923D01*
X112732Y-60923D01*
X111118Y-53991D02*
X111118Y-53831D01*
X111156Y-53831D01*
X111179Y-53838D01*
X111194Y-53854D01*
X111202Y-53869D01*
X111209Y-53899D01*
X111209Y-53922D01*
X111202Y-53953D01*
X111194Y-53968D01*
X111179Y-53983D01*
X111156Y-53991D01*
X111118Y-53991D01*
X111262Y-53831D02*
X111362Y-53831D01*
X111308Y-53892D01*
X111331Y-53892D01*
X111346Y-53899D01*
X111354Y-53907D01*
X111362Y-53922D01*
X111362Y-53960D01*
X111354Y-53975D01*
X111346Y-53983D01*
X111331Y-53991D01*
X111285Y-53991D01*
X111270Y-53983D01*
X111262Y-53975D01*
X111430Y-53975D02*
X111438Y-53983D01*
X111430Y-53991D01*
X111422Y-53983D01*
X111430Y-53975D01*
X111430Y-53991D01*
X111430Y-53892D02*
X111438Y-53899D01*
X111430Y-53907D01*
X111422Y-53899D01*
X111430Y-53892D01*
X111430Y-53907D01*
X111590Y-53991D02*
X111499Y-53991D01*
X111544Y-53991D02*
X111544Y-53831D01*
X111529Y-53854D01*
X111514Y-53869D01*
X111499Y-53876D01*
X111742Y-53991D02*
X111651Y-53991D01*
X111697Y-53991D02*
X111697Y-53831D01*
X111682Y-53854D01*
X111666Y-53869D01*
X111651Y-53876D01*
X110763Y-53443D02*
X110763Y-53203D01*
X110821Y-53203D01*
X110855Y-53215D01*
X110878Y-53237D01*
X110889Y-53260D01*
X110901Y-53306D01*
X110901Y-53340D01*
X110889Y-53386D01*
X110878Y-53409D01*
X110855Y-53432D01*
X110821Y-53443D01*
X110763Y-53443D01*
X38359Y-61471D02*
X38359Y-61311D01*
X38397Y-61311D01*
X38420Y-61319D01*
X38435Y-61334D01*
X38443Y-61349D01*
X38451Y-61380D01*
X38451Y-61402D01*
X38443Y-61433D01*
X38435Y-61448D01*
X38420Y-61463D01*
X38397Y-61471D01*
X38359Y-61471D01*
X38512Y-61326D02*
X38519Y-61319D01*
X38534Y-61311D01*
X38573Y-61311D01*
X38588Y-61319D01*
X38595Y-61326D01*
X38603Y-61342D01*
X38603Y-61357D01*
X38595Y-61380D01*
X38504Y-61471D01*
X38603Y-61471D01*
X38672Y-61456D02*
X38679Y-61463D01*
X38672Y-61471D01*
X38664Y-61463D01*
X38672Y-61456D01*
X38672Y-61471D01*
X38672Y-61372D02*
X38679Y-61380D01*
X38672Y-61387D01*
X38664Y-61380D01*
X38672Y-61372D01*
X38672Y-61387D01*
X38832Y-61471D02*
X38740Y-61471D01*
X38786Y-61471D02*
X38786Y-61311D01*
X38771Y-61334D01*
X38755Y-61349D01*
X38740Y-61357D01*
X37929Y-60923D02*
X37929Y-60683D01*
X37986Y-60683D01*
X38020Y-60695D01*
X38043Y-60718D01*
X38054Y-60741D01*
X38066Y-60786D01*
X38066Y-60821D01*
X38054Y-60866D01*
X38043Y-60889D01*
X38020Y-60912D01*
X37986Y-60923D01*
X37929Y-60923D01*
X51155Y-53991D02*
X51155Y-53831D01*
X51193Y-53831D01*
X51215Y-53838D01*
X51231Y-53854D01*
X51238Y-53869D01*
X51246Y-53899D01*
X51246Y-53922D01*
X51238Y-53953D01*
X51231Y-53968D01*
X51215Y-53983D01*
X51193Y-53991D01*
X51155Y-53991D01*
X51299Y-53831D02*
X51398Y-53831D01*
X51345Y-53892D01*
X51368Y-53892D01*
X51383Y-53899D01*
X51391Y-53907D01*
X51398Y-53922D01*
X51398Y-53960D01*
X51391Y-53975D01*
X51383Y-53983D01*
X51368Y-53991D01*
X51322Y-53991D01*
X51307Y-53983D01*
X51299Y-53975D01*
X51467Y-53975D02*
X51475Y-53983D01*
X51467Y-53991D01*
X51459Y-53983D01*
X51467Y-53975D01*
X51467Y-53991D01*
X51467Y-53892D02*
X51475Y-53899D01*
X51467Y-53907D01*
X51459Y-53899D01*
X51467Y-53892D01*
X51467Y-53907D01*
X51528Y-53831D02*
X51627Y-53831D01*
X51574Y-53892D01*
X51596Y-53892D01*
X51612Y-53899D01*
X51619Y-53907D01*
X51627Y-53922D01*
X51627Y-53960D01*
X51619Y-53975D01*
X51612Y-53983D01*
X51596Y-53991D01*
X51551Y-53991D01*
X51535Y-53983D01*
X51528Y-53975D01*
X50724Y-53443D02*
X50724Y-53203D01*
X50781Y-53203D01*
X50815Y-53215D01*
X50838Y-53237D01*
X50850Y-53260D01*
X50861Y-53306D01*
X50861Y-53340D01*
X50850Y-53386D01*
X50838Y-53409D01*
X50815Y-53432D01*
X50781Y-53443D01*
X50724Y-53443D01*
X49383Y-68951D02*
X49383Y-68791D01*
X49421Y-68791D01*
X49444Y-68799D01*
X49459Y-68814D01*
X49467Y-68829D01*
X49474Y-68860D01*
X49474Y-68883D01*
X49467Y-68913D01*
X49459Y-68928D01*
X49444Y-68944D01*
X49421Y-68951D01*
X49383Y-68951D01*
X49627Y-68951D02*
X49535Y-68951D01*
X49581Y-68951D02*
X49581Y-68791D01*
X49566Y-68814D01*
X49550Y-68829D01*
X49535Y-68837D01*
X49695Y-68936D02*
X49703Y-68944D01*
X49695Y-68951D01*
X49688Y-68944D01*
X49695Y-68936D01*
X49695Y-68951D01*
X49695Y-68852D02*
X49703Y-68860D01*
X49695Y-68868D01*
X49688Y-68860D01*
X49695Y-68852D01*
X49695Y-68868D01*
X49756Y-68791D02*
X49855Y-68791D01*
X49802Y-68852D01*
X49825Y-68852D01*
X49840Y-68860D01*
X49848Y-68868D01*
X49855Y-68883D01*
X49855Y-68921D01*
X49848Y-68936D01*
X49840Y-68944D01*
X49825Y-68951D01*
X49779Y-68951D01*
X49764Y-68944D01*
X49756Y-68936D01*
X48952Y-68404D02*
X48952Y-68164D01*
X49010Y-68164D01*
X49044Y-68175D01*
X49067Y-68198D01*
X49078Y-68221D01*
X49090Y-68267D01*
X49090Y-68301D01*
X49078Y-68347D01*
X49067Y-68369D01*
X49044Y-68392D01*
X49010Y-68404D01*
X48952Y-68404D01*
X51351Y-46510D02*
X51351Y-46350D01*
X51389Y-46350D01*
X51412Y-46358D01*
X51428Y-46373D01*
X51435Y-46388D01*
X51443Y-46419D01*
X51443Y-46442D01*
X51435Y-46472D01*
X51428Y-46488D01*
X51412Y-46503D01*
X51389Y-46510D01*
X51351Y-46510D01*
X51580Y-46404D02*
X51580Y-46510D01*
X51542Y-46343D02*
X51504Y-46457D01*
X51603Y-46457D01*
X51664Y-46495D02*
X51671Y-46503D01*
X51664Y-46510D01*
X51656Y-46503D01*
X51664Y-46495D01*
X51664Y-46510D01*
X51664Y-46411D02*
X51671Y-46419D01*
X51664Y-46427D01*
X51656Y-46419D01*
X51664Y-46411D01*
X51664Y-46427D01*
X51725Y-46350D02*
X51824Y-46350D01*
X51770Y-46411D01*
X51793Y-46411D01*
X51809Y-46419D01*
X51816Y-46427D01*
X51824Y-46442D01*
X51824Y-46480D01*
X51816Y-46495D01*
X51809Y-46503D01*
X51793Y-46510D01*
X51748Y-46510D01*
X51732Y-46503D01*
X51725Y-46495D01*
X50921Y-45963D02*
X50921Y-45723D01*
X50978Y-45723D01*
X51012Y-45734D01*
X51035Y-45757D01*
X51047Y-45780D01*
X51058Y-45826D01*
X51058Y-45860D01*
X51047Y-45906D01*
X51035Y-45928D01*
X51012Y-45951D01*
X50978Y-45963D01*
X50921Y-45963D01*
X45840Y-61471D02*
X45840Y-61311D01*
X45878Y-61311D01*
X45901Y-61319D01*
X45916Y-61334D01*
X45923Y-61349D01*
X45931Y-61380D01*
X45931Y-61402D01*
X45923Y-61433D01*
X45916Y-61448D01*
X45901Y-61463D01*
X45878Y-61471D01*
X45840Y-61471D01*
X45992Y-61326D02*
X46000Y-61319D01*
X46015Y-61311D01*
X46053Y-61311D01*
X46068Y-61319D01*
X46076Y-61326D01*
X46083Y-61342D01*
X46083Y-61357D01*
X46076Y-61380D01*
X45984Y-61471D01*
X46083Y-61471D01*
X46152Y-61456D02*
X46160Y-61463D01*
X46152Y-61471D01*
X46144Y-61463D01*
X46152Y-61456D01*
X46152Y-61471D01*
X46152Y-61372D02*
X46160Y-61380D01*
X46152Y-61387D01*
X46144Y-61380D01*
X46152Y-61372D01*
X46152Y-61387D01*
X46221Y-61326D02*
X46228Y-61319D01*
X46243Y-61311D01*
X46281Y-61311D01*
X46297Y-61319D01*
X46304Y-61326D01*
X46312Y-61342D01*
X46312Y-61357D01*
X46304Y-61380D01*
X46213Y-61471D01*
X46312Y-61471D01*
X45409Y-60923D02*
X45409Y-60683D01*
X45466Y-60683D01*
X45501Y-60695D01*
X45523Y-60718D01*
X45535Y-60741D01*
X45546Y-60786D01*
X45546Y-60821D01*
X45535Y-60866D01*
X45523Y-60889D01*
X45501Y-60912D01*
X45466Y-60923D01*
X45409Y-60923D01*
X43871Y-53991D02*
X43871Y-53831D01*
X43909Y-53831D01*
X43932Y-53838D01*
X43947Y-53854D01*
X43955Y-53869D01*
X43962Y-53899D01*
X43962Y-53922D01*
X43955Y-53953D01*
X43947Y-53968D01*
X43932Y-53983D01*
X43909Y-53991D01*
X43871Y-53991D01*
X44016Y-53831D02*
X44115Y-53831D01*
X44062Y-53892D01*
X44084Y-53892D01*
X44100Y-53899D01*
X44107Y-53907D01*
X44115Y-53922D01*
X44115Y-53960D01*
X44107Y-53975D01*
X44100Y-53983D01*
X44084Y-53991D01*
X44039Y-53991D01*
X44023Y-53983D01*
X44016Y-53975D01*
X44183Y-53975D02*
X44191Y-53983D01*
X44183Y-53991D01*
X44176Y-53983D01*
X44183Y-53975D01*
X44183Y-53991D01*
X44183Y-53892D02*
X44191Y-53899D01*
X44183Y-53907D01*
X44176Y-53899D01*
X44183Y-53892D01*
X44183Y-53907D01*
X44252Y-53846D02*
X44260Y-53838D01*
X44275Y-53831D01*
X44313Y-53831D01*
X44328Y-53838D01*
X44336Y-53846D01*
X44343Y-53861D01*
X44343Y-53876D01*
X44336Y-53899D01*
X44244Y-53991D01*
X44343Y-53991D01*
X43441Y-53443D02*
X43441Y-53203D01*
X43498Y-53203D01*
X43532Y-53215D01*
X43555Y-53237D01*
X43566Y-53260D01*
X43578Y-53306D01*
X43578Y-53340D01*
X43566Y-53386D01*
X43555Y-53409D01*
X43532Y-53432D01*
X43498Y-53443D01*
X43441Y-53443D01*
X46824Y-76432D02*
X46824Y-76272D01*
X46862Y-76272D01*
X46885Y-76279D01*
X46900Y-76295D01*
X46908Y-76310D01*
X46915Y-76340D01*
X46915Y-76363D01*
X46908Y-76394D01*
X46900Y-76409D01*
X46885Y-76424D01*
X46862Y-76432D01*
X46824Y-76432D01*
X47014Y-76272D02*
X47030Y-76272D01*
X47045Y-76279D01*
X47052Y-76287D01*
X47060Y-76302D01*
X47068Y-76333D01*
X47068Y-76371D01*
X47060Y-76401D01*
X47052Y-76416D01*
X47045Y-76424D01*
X47030Y-76432D01*
X47014Y-76432D01*
X46999Y-76424D01*
X46991Y-76416D01*
X46984Y-76401D01*
X46976Y-76371D01*
X46976Y-76333D01*
X46984Y-76302D01*
X46991Y-76287D01*
X46999Y-76279D01*
X47014Y-76272D01*
X47136Y-76416D02*
X47144Y-76424D01*
X47136Y-76432D01*
X47129Y-76424D01*
X47136Y-76416D01*
X47136Y-76432D01*
X47136Y-76333D02*
X47144Y-76340D01*
X47136Y-76348D01*
X47129Y-76340D01*
X47136Y-76333D01*
X47136Y-76348D01*
X47205Y-76287D02*
X47212Y-76279D01*
X47228Y-76272D01*
X47266Y-76272D01*
X47281Y-76279D01*
X47289Y-76287D01*
X47296Y-76302D01*
X47296Y-76317D01*
X47289Y-76340D01*
X47197Y-76432D01*
X47296Y-76432D01*
X46393Y-75884D02*
X46393Y-75644D01*
X46450Y-75644D01*
X46485Y-75655D01*
X46508Y-75678D01*
X46519Y-75701D01*
X46530Y-75747D01*
X46530Y-75781D01*
X46519Y-75827D01*
X46508Y-75850D01*
X46485Y-75873D01*
X46450Y-75884D01*
X46393Y-75884D01*
X40290Y-68951D02*
X40290Y-68791D01*
X40328Y-68791D01*
X40351Y-68799D01*
X40366Y-68814D01*
X40373Y-68829D01*
X40381Y-68860D01*
X40381Y-68883D01*
X40373Y-68913D01*
X40366Y-68928D01*
X40351Y-68944D01*
X40328Y-68951D01*
X40290Y-68951D01*
X40450Y-68936D02*
X40457Y-68944D01*
X40450Y-68951D01*
X40442Y-68944D01*
X40450Y-68936D01*
X40450Y-68951D01*
X40450Y-68852D02*
X40457Y-68860D01*
X40450Y-68868D01*
X40442Y-68860D01*
X40450Y-68852D01*
X40450Y-68868D01*
X40610Y-68951D02*
X40518Y-68951D01*
X40564Y-68951D02*
X40564Y-68791D01*
X40549Y-68814D01*
X40533Y-68829D01*
X40518Y-68837D01*
X40678Y-68936D02*
X40686Y-68944D01*
X40678Y-68951D01*
X40671Y-68944D01*
X40678Y-68936D01*
X40678Y-68951D01*
X40678Y-68852D02*
X40686Y-68860D01*
X40678Y-68868D01*
X40671Y-68860D01*
X40678Y-68852D01*
X40678Y-68868D01*
X40747Y-68807D02*
X40754Y-68799D01*
X40770Y-68791D01*
X40808Y-68791D01*
X40823Y-68799D01*
X40831Y-68807D01*
X40838Y-68822D01*
X40838Y-68837D01*
X40831Y-68860D01*
X40739Y-68951D01*
X40838Y-68951D01*
X39897Y-68404D02*
X39897Y-68164D01*
X39954Y-68164D01*
X39989Y-68175D01*
X40012Y-68198D01*
X40023Y-68221D01*
X40034Y-68267D01*
X40034Y-68301D01*
X40023Y-68347D01*
X40012Y-68369D01*
X39989Y-68392D01*
X39954Y-68404D01*
X39897Y-68404D01*
X43871Y-46510D02*
X43871Y-46350D01*
X43909Y-46350D01*
X43932Y-46358D01*
X43947Y-46373D01*
X43955Y-46388D01*
X43962Y-46419D01*
X43962Y-46442D01*
X43955Y-46472D01*
X43947Y-46488D01*
X43932Y-46503D01*
X43909Y-46510D01*
X43871Y-46510D01*
X44100Y-46404D02*
X44100Y-46510D01*
X44062Y-46343D02*
X44023Y-46457D01*
X44122Y-46457D01*
X44183Y-46495D02*
X44191Y-46503D01*
X44183Y-46510D01*
X44176Y-46503D01*
X44183Y-46495D01*
X44183Y-46510D01*
X44183Y-46411D02*
X44191Y-46419D01*
X44183Y-46427D01*
X44176Y-46419D01*
X44183Y-46411D01*
X44183Y-46427D01*
X44252Y-46366D02*
X44260Y-46358D01*
X44275Y-46350D01*
X44313Y-46350D01*
X44328Y-46358D01*
X44336Y-46366D01*
X44343Y-46381D01*
X44343Y-46396D01*
X44336Y-46419D01*
X44244Y-46510D01*
X44343Y-46510D01*
X43441Y-45963D02*
X43441Y-45723D01*
X43498Y-45723D01*
X43532Y-45734D01*
X43555Y-45757D01*
X43566Y-45780D01*
X43578Y-45826D01*
X43578Y-45860D01*
X43566Y-45906D01*
X43555Y-45928D01*
X43532Y-45951D01*
X43498Y-45963D01*
X43441Y-45963D01*
X53320Y-61471D02*
X53320Y-61311D01*
X53358Y-61311D01*
X53381Y-61319D01*
X53396Y-61334D01*
X53404Y-61349D01*
X53411Y-61380D01*
X53411Y-61402D01*
X53404Y-61433D01*
X53396Y-61448D01*
X53381Y-61463D01*
X53358Y-61471D01*
X53320Y-61471D01*
X53472Y-61326D02*
X53480Y-61319D01*
X53495Y-61311D01*
X53533Y-61311D01*
X53548Y-61319D01*
X53556Y-61326D01*
X53564Y-61342D01*
X53564Y-61357D01*
X53556Y-61380D01*
X53465Y-61471D01*
X53564Y-61471D01*
X53632Y-61456D02*
X53640Y-61463D01*
X53632Y-61471D01*
X53625Y-61463D01*
X53632Y-61456D01*
X53632Y-61471D01*
X53632Y-61372D02*
X53640Y-61380D01*
X53632Y-61387D01*
X53625Y-61380D01*
X53632Y-61372D01*
X53632Y-61387D01*
X53693Y-61311D02*
X53792Y-61311D01*
X53739Y-61372D01*
X53762Y-61372D01*
X53777Y-61380D01*
X53785Y-61387D01*
X53792Y-61402D01*
X53792Y-61441D01*
X53785Y-61456D01*
X53777Y-61463D01*
X53762Y-61471D01*
X53716Y-61471D01*
X53701Y-61463D01*
X53693Y-61456D01*
X52889Y-60923D02*
X52889Y-60683D01*
X52947Y-60683D01*
X52981Y-60695D01*
X53004Y-60718D01*
X53015Y-60741D01*
X53027Y-60786D01*
X53027Y-60821D01*
X53015Y-60866D01*
X53004Y-60889D01*
X52981Y-60912D01*
X52947Y-60923D01*
X52889Y-60923D01*
X36391Y-53991D02*
X36391Y-53831D01*
X36429Y-53831D01*
X36452Y-53838D01*
X36467Y-53854D01*
X36475Y-53869D01*
X36482Y-53899D01*
X36482Y-53922D01*
X36475Y-53953D01*
X36467Y-53968D01*
X36452Y-53983D01*
X36429Y-53991D01*
X36391Y-53991D01*
X36536Y-53831D02*
X36635Y-53831D01*
X36581Y-53892D01*
X36604Y-53892D01*
X36619Y-53899D01*
X36627Y-53907D01*
X36635Y-53922D01*
X36635Y-53960D01*
X36627Y-53975D01*
X36619Y-53983D01*
X36604Y-53991D01*
X36558Y-53991D01*
X36543Y-53983D01*
X36536Y-53975D01*
X36703Y-53975D02*
X36711Y-53983D01*
X36703Y-53991D01*
X36696Y-53983D01*
X36703Y-53975D01*
X36703Y-53991D01*
X36703Y-53892D02*
X36711Y-53899D01*
X36703Y-53907D01*
X36696Y-53899D01*
X36703Y-53892D01*
X36703Y-53907D01*
X36863Y-53991D02*
X36772Y-53991D01*
X36817Y-53991D02*
X36817Y-53831D01*
X36802Y-53854D01*
X36787Y-53869D01*
X36772Y-53876D01*
X35960Y-53443D02*
X35960Y-53203D01*
X36017Y-53203D01*
X36052Y-53215D01*
X36075Y-53237D01*
X36086Y-53260D01*
X36097Y-53306D01*
X36097Y-53340D01*
X36086Y-53386D01*
X36075Y-53409D01*
X36052Y-53432D01*
X36017Y-53443D01*
X35960Y-53443D01*
X38359Y-76432D02*
X38359Y-76272D01*
X38397Y-76272D01*
X38420Y-76279D01*
X38435Y-76295D01*
X38443Y-76310D01*
X38451Y-76340D01*
X38451Y-76363D01*
X38443Y-76394D01*
X38435Y-76409D01*
X38420Y-76424D01*
X38397Y-76432D01*
X38359Y-76432D01*
X38550Y-76272D02*
X38565Y-76272D01*
X38580Y-76279D01*
X38588Y-76287D01*
X38595Y-76302D01*
X38603Y-76333D01*
X38603Y-76371D01*
X38595Y-76401D01*
X38588Y-76416D01*
X38580Y-76424D01*
X38565Y-76432D01*
X38550Y-76432D01*
X38534Y-76424D01*
X38527Y-76416D01*
X38519Y-76401D01*
X38512Y-76371D01*
X38512Y-76333D01*
X38519Y-76302D01*
X38527Y-76287D01*
X38534Y-76279D01*
X38550Y-76272D01*
X38672Y-76416D02*
X38679Y-76424D01*
X38672Y-76432D01*
X38664Y-76424D01*
X38672Y-76416D01*
X38672Y-76432D01*
X38672Y-76333D02*
X38679Y-76340D01*
X38672Y-76348D01*
X38664Y-76340D01*
X38672Y-76333D01*
X38672Y-76348D01*
X38832Y-76432D02*
X38740Y-76432D01*
X38786Y-76432D02*
X38786Y-76272D01*
X38771Y-76295D01*
X38755Y-76310D01*
X38740Y-76317D01*
X37929Y-75884D02*
X37929Y-75644D01*
X37986Y-75644D01*
X38020Y-75655D01*
X38043Y-75678D01*
X38054Y-75701D01*
X38066Y-75747D01*
X38066Y-75781D01*
X38054Y-75827D01*
X38043Y-75850D01*
X38020Y-75873D01*
X37986Y-75884D01*
X37929Y-75884D01*
X36588Y-46510D02*
X36588Y-46350D01*
X36626Y-46350D01*
X36649Y-46358D01*
X36664Y-46373D01*
X36671Y-46388D01*
X36679Y-46419D01*
X36679Y-46442D01*
X36671Y-46472D01*
X36664Y-46488D01*
X36649Y-46503D01*
X36626Y-46510D01*
X36588Y-46510D01*
X36816Y-46404D02*
X36816Y-46510D01*
X36778Y-46343D02*
X36740Y-46457D01*
X36839Y-46457D01*
X36900Y-46495D02*
X36908Y-46503D01*
X36900Y-46510D01*
X36892Y-46503D01*
X36900Y-46495D01*
X36900Y-46510D01*
X36900Y-46411D02*
X36908Y-46419D01*
X36900Y-46427D01*
X36892Y-46419D01*
X36900Y-46411D01*
X36900Y-46427D01*
X37060Y-46510D02*
X36969Y-46510D01*
X37014Y-46510D02*
X37014Y-46350D01*
X36999Y-46373D01*
X36984Y-46388D01*
X36969Y-46396D01*
X36157Y-45963D02*
X36157Y-45723D01*
X36214Y-45723D01*
X36249Y-45734D01*
X36271Y-45757D01*
X36283Y-45780D01*
X36294Y-45826D01*
X36294Y-45860D01*
X36283Y-45906D01*
X36271Y-45928D01*
X36249Y-45951D01*
X36214Y-45963D01*
X36157Y-45963D01*
X29895Y-61471D02*
X29895Y-61311D01*
X29933Y-61311D01*
X29956Y-61319D01*
X29971Y-61334D01*
X29978Y-61349D01*
X29986Y-61380D01*
X29986Y-61402D01*
X29978Y-61433D01*
X29971Y-61448D01*
X29956Y-61463D01*
X29933Y-61471D01*
X29895Y-61471D01*
X30047Y-61326D02*
X30055Y-61319D01*
X30070Y-61311D01*
X30108Y-61311D01*
X30123Y-61319D01*
X30131Y-61326D01*
X30138Y-61342D01*
X30138Y-61357D01*
X30131Y-61380D01*
X30039Y-61471D01*
X30138Y-61471D01*
X30207Y-61456D02*
X30215Y-61463D01*
X30207Y-61471D01*
X30199Y-61463D01*
X30207Y-61456D01*
X30207Y-61471D01*
X30207Y-61372D02*
X30215Y-61380D01*
X30207Y-61387D01*
X30199Y-61380D01*
X30207Y-61372D01*
X30207Y-61387D01*
X30314Y-61311D02*
X30329Y-61311D01*
X30344Y-61319D01*
X30352Y-61326D01*
X30359Y-61342D01*
X30367Y-61372D01*
X30367Y-61410D01*
X30359Y-61441D01*
X30352Y-61456D01*
X30344Y-61463D01*
X30329Y-61471D01*
X30314Y-61471D01*
X30298Y-61463D01*
X30291Y-61456D01*
X30283Y-61441D01*
X30276Y-61410D01*
X30276Y-61372D01*
X30283Y-61342D01*
X30291Y-61326D01*
X30298Y-61319D01*
X30314Y-61311D01*
X29464Y-60923D02*
X29464Y-60683D01*
X29521Y-60683D01*
X29556Y-60695D01*
X29578Y-60718D01*
X29590Y-60741D01*
X29601Y-60786D01*
X29601Y-60821D01*
X29590Y-60866D01*
X29578Y-60889D01*
X29556Y-60912D01*
X29521Y-60923D01*
X29464Y-60923D01*
X28714Y-53991D02*
X28714Y-53831D01*
X28752Y-53831D01*
X28775Y-53838D01*
X28790Y-53854D01*
X28797Y-53869D01*
X28805Y-53899D01*
X28805Y-53922D01*
X28797Y-53953D01*
X28790Y-53968D01*
X28775Y-53983D01*
X28752Y-53991D01*
X28714Y-53991D01*
X28858Y-53831D02*
X28957Y-53831D01*
X28904Y-53892D01*
X28927Y-53892D01*
X28942Y-53899D01*
X28950Y-53907D01*
X28957Y-53922D01*
X28957Y-53960D01*
X28950Y-53975D01*
X28942Y-53983D01*
X28927Y-53991D01*
X28881Y-53991D01*
X28866Y-53983D01*
X28858Y-53975D01*
X29026Y-53975D02*
X29034Y-53983D01*
X29026Y-53991D01*
X29018Y-53983D01*
X29026Y-53975D01*
X29026Y-53991D01*
X29026Y-53892D02*
X29034Y-53899D01*
X29026Y-53907D01*
X29018Y-53899D01*
X29026Y-53892D01*
X29026Y-53907D01*
X29133Y-53831D02*
X29148Y-53831D01*
X29163Y-53838D01*
X29171Y-53846D01*
X29178Y-53861D01*
X29186Y-53892D01*
X29186Y-53930D01*
X29178Y-53960D01*
X29171Y-53975D01*
X29163Y-53983D01*
X29148Y-53991D01*
X29133Y-53991D01*
X29117Y-53983D01*
X29110Y-53975D01*
X29102Y-53960D01*
X29095Y-53930D01*
X29095Y-53892D01*
X29102Y-53861D01*
X29110Y-53846D01*
X29117Y-53838D01*
X29133Y-53831D01*
X28283Y-53443D02*
X28283Y-53203D01*
X28340Y-53203D01*
X28375Y-53215D01*
X28397Y-53237D01*
X28409Y-53260D01*
X28420Y-53306D01*
X28420Y-53340D01*
X28409Y-53386D01*
X28397Y-53409D01*
X28375Y-53432D01*
X28340Y-53443D01*
X28283Y-53443D01*
X29895Y-76432D02*
X29895Y-76272D01*
X29933Y-76272D01*
X29956Y-76279D01*
X29971Y-76295D01*
X29978Y-76310D01*
X29986Y-76340D01*
X29986Y-76363D01*
X29978Y-76394D01*
X29971Y-76409D01*
X29956Y-76424D01*
X29933Y-76432D01*
X29895Y-76432D01*
X30085Y-76272D02*
X30100Y-76272D01*
X30116Y-76279D01*
X30123Y-76287D01*
X30131Y-76302D01*
X30138Y-76333D01*
X30138Y-76371D01*
X30131Y-76401D01*
X30123Y-76416D01*
X30116Y-76424D01*
X30100Y-76432D01*
X30085Y-76432D01*
X30070Y-76424D01*
X30062Y-76416D01*
X30055Y-76401D01*
X30047Y-76371D01*
X30047Y-76333D01*
X30055Y-76302D01*
X30062Y-76287D01*
X30070Y-76279D01*
X30085Y-76272D01*
X30207Y-76416D02*
X30215Y-76424D01*
X30207Y-76432D01*
X30199Y-76424D01*
X30207Y-76416D01*
X30207Y-76432D01*
X30207Y-76333D02*
X30215Y-76340D01*
X30207Y-76348D01*
X30199Y-76340D01*
X30207Y-76333D01*
X30207Y-76348D01*
X30314Y-76272D02*
X30329Y-76272D01*
X30344Y-76279D01*
X30352Y-76287D01*
X30359Y-76302D01*
X30367Y-76333D01*
X30367Y-76371D01*
X30359Y-76401D01*
X30352Y-76416D01*
X30344Y-76424D01*
X30329Y-76432D01*
X30314Y-76432D01*
X30298Y-76424D01*
X30291Y-76416D01*
X30283Y-76401D01*
X30276Y-76371D01*
X30276Y-76333D01*
X30283Y-76302D01*
X30291Y-76287D01*
X30298Y-76279D01*
X30314Y-76272D01*
X29464Y-75884D02*
X29464Y-75644D01*
X29521Y-75644D01*
X29556Y-75655D01*
X29578Y-75678D01*
X29590Y-75701D01*
X29601Y-75747D01*
X29601Y-75781D01*
X29590Y-75827D01*
X29578Y-75850D01*
X29556Y-75873D01*
X29521Y-75884D01*
X29464Y-75884D01*
X31666Y-68951D02*
X31666Y-68791D01*
X31704Y-68791D01*
X31727Y-68799D01*
X31743Y-68814D01*
X31750Y-68829D01*
X31758Y-68860D01*
X31758Y-68883D01*
X31750Y-68913D01*
X31743Y-68928D01*
X31727Y-68944D01*
X31704Y-68951D01*
X31666Y-68951D01*
X31910Y-68951D02*
X31819Y-68951D01*
X31864Y-68951D02*
X31864Y-68791D01*
X31849Y-68814D01*
X31834Y-68829D01*
X31819Y-68837D01*
X31979Y-68936D02*
X31986Y-68944D01*
X31979Y-68951D01*
X31971Y-68944D01*
X31979Y-68936D01*
X31979Y-68951D01*
X31979Y-68852D02*
X31986Y-68860D01*
X31979Y-68868D01*
X31971Y-68860D01*
X31979Y-68852D01*
X31979Y-68868D01*
X32085Y-68791D02*
X32101Y-68791D01*
X32116Y-68799D01*
X32123Y-68807D01*
X32131Y-68822D01*
X32139Y-68852D01*
X32139Y-68890D01*
X32131Y-68921D01*
X32123Y-68936D01*
X32116Y-68944D01*
X32101Y-68951D01*
X32085Y-68951D01*
X32070Y-68944D01*
X32063Y-68936D01*
X32055Y-68921D01*
X32047Y-68890D01*
X32047Y-68852D01*
X32055Y-68822D01*
X32063Y-68807D01*
X32070Y-68799D01*
X32085Y-68791D01*
X31236Y-68404D02*
X31236Y-68164D01*
X31293Y-68164D01*
X31327Y-68175D01*
X31350Y-68198D01*
X31362Y-68221D01*
X31373Y-68267D01*
X31373Y-68301D01*
X31362Y-68347D01*
X31350Y-68369D01*
X31327Y-68392D01*
X31293Y-68404D01*
X31236Y-68404D01*
X28910Y-46510D02*
X28910Y-46350D01*
X28949Y-46350D01*
X28971Y-46358D01*
X28987Y-46373D01*
X28994Y-46388D01*
X29002Y-46419D01*
X29002Y-46442D01*
X28994Y-46472D01*
X28987Y-46488D01*
X28971Y-46503D01*
X28949Y-46510D01*
X28910Y-46510D01*
X29139Y-46404D02*
X29139Y-46510D01*
X29101Y-46343D02*
X29063Y-46457D01*
X29162Y-46457D01*
X29223Y-46495D02*
X29230Y-46503D01*
X29223Y-46510D01*
X29215Y-46503D01*
X29223Y-46495D01*
X29223Y-46510D01*
X29223Y-46411D02*
X29230Y-46419D01*
X29223Y-46427D01*
X29215Y-46419D01*
X29223Y-46411D01*
X29223Y-46427D01*
X29329Y-46350D02*
X29345Y-46350D01*
X29360Y-46358D01*
X29368Y-46366D01*
X29375Y-46381D01*
X29383Y-46411D01*
X29383Y-46449D01*
X29375Y-46480D01*
X29368Y-46495D01*
X29360Y-46503D01*
X29345Y-46510D01*
X29329Y-46510D01*
X29314Y-46503D01*
X29307Y-46495D01*
X29299Y-46480D01*
X29291Y-46449D01*
X29291Y-46411D01*
X29299Y-46381D01*
X29307Y-46366D01*
X29314Y-46358D01*
X29329Y-46350D01*
X28480Y-45963D02*
X28480Y-45723D01*
X28537Y-45723D01*
X28571Y-45734D01*
X28594Y-45757D01*
X28606Y-45780D01*
X28617Y-45826D01*
X28617Y-45860D01*
X28606Y-45906D01*
X28594Y-45928D01*
X28571Y-45951D01*
X28537Y-45963D01*
X28480Y-45963D01*
X58832Y-46510D02*
X58832Y-46350D01*
X58870Y-46350D01*
X58893Y-46358D01*
X58908Y-46373D01*
X58915Y-46388D01*
X58923Y-46419D01*
X58923Y-46442D01*
X58915Y-46472D01*
X58908Y-46488D01*
X58893Y-46503D01*
X58870Y-46510D01*
X58832Y-46510D01*
X59060Y-46404D02*
X59060Y-46510D01*
X59022Y-46343D02*
X58984Y-46457D01*
X59083Y-46457D01*
X59144Y-46495D02*
X59152Y-46503D01*
X59144Y-46510D01*
X59136Y-46503D01*
X59144Y-46495D01*
X59144Y-46510D01*
X59144Y-46411D02*
X59152Y-46419D01*
X59144Y-46427D01*
X59136Y-46419D01*
X59144Y-46411D01*
X59144Y-46427D01*
X59289Y-46404D02*
X59289Y-46510D01*
X59251Y-46343D02*
X59213Y-46457D01*
X59312Y-46457D01*
X58401Y-45963D02*
X58401Y-45723D01*
X58458Y-45723D01*
X58493Y-45734D01*
X58515Y-45757D01*
X58527Y-45780D01*
X58538Y-45826D01*
X58538Y-45860D01*
X58527Y-45906D01*
X58515Y-45928D01*
X58493Y-45951D01*
X58458Y-45963D01*
X58401Y-45963D01*
X56863Y-68951D02*
X56863Y-68791D01*
X56901Y-68791D01*
X56924Y-68799D01*
X56939Y-68814D01*
X56947Y-68829D01*
X56955Y-68860D01*
X56955Y-68883D01*
X56947Y-68913D01*
X56939Y-68928D01*
X56924Y-68944D01*
X56901Y-68951D01*
X56863Y-68951D01*
X57107Y-68951D02*
X57016Y-68951D01*
X57061Y-68951D02*
X57061Y-68791D01*
X57046Y-68814D01*
X57031Y-68829D01*
X57016Y-68837D01*
X57176Y-68936D02*
X57183Y-68944D01*
X57176Y-68951D01*
X57168Y-68944D01*
X57176Y-68936D01*
X57176Y-68951D01*
X57176Y-68852D02*
X57183Y-68860D01*
X57176Y-68868D01*
X57168Y-68860D01*
X57176Y-68852D01*
X57176Y-68868D01*
X57320Y-68845D02*
X57320Y-68951D01*
X57282Y-68784D02*
X57244Y-68898D01*
X57343Y-68898D01*
X56433Y-68404D02*
X56433Y-68164D01*
X56490Y-68164D01*
X56524Y-68175D01*
X56547Y-68198D01*
X56558Y-68221D01*
X56570Y-68267D01*
X56570Y-68301D01*
X56558Y-68347D01*
X56547Y-68369D01*
X56524Y-68392D01*
X56490Y-68404D01*
X56433Y-68404D01*
X58635Y-53991D02*
X58635Y-53831D01*
X58673Y-53831D01*
X58696Y-53838D01*
X58711Y-53854D01*
X58719Y-53869D01*
X58726Y-53899D01*
X58726Y-53922D01*
X58719Y-53953D01*
X58711Y-53968D01*
X58696Y-53983D01*
X58673Y-53991D01*
X58635Y-53991D01*
X58780Y-53831D02*
X58879Y-53831D01*
X58825Y-53892D01*
X58848Y-53892D01*
X58863Y-53899D01*
X58871Y-53907D01*
X58879Y-53922D01*
X58879Y-53960D01*
X58871Y-53975D01*
X58863Y-53983D01*
X58848Y-53991D01*
X58802Y-53991D01*
X58787Y-53983D01*
X58780Y-53975D01*
X58947Y-53975D02*
X58955Y-53983D01*
X58947Y-53991D01*
X58940Y-53983D01*
X58947Y-53975D01*
X58947Y-53991D01*
X58947Y-53892D02*
X58955Y-53899D01*
X58947Y-53907D01*
X58940Y-53899D01*
X58947Y-53892D01*
X58947Y-53907D01*
X59092Y-53884D02*
X59092Y-53991D01*
X59054Y-53823D02*
X59016Y-53937D01*
X59115Y-53937D01*
X58204Y-53443D02*
X58204Y-53203D01*
X58262Y-53203D01*
X58296Y-53215D01*
X58319Y-53237D01*
X58330Y-53260D01*
X58342Y-53306D01*
X58342Y-53340D01*
X58330Y-53386D01*
X58319Y-53409D01*
X58296Y-53432D01*
X58262Y-53443D01*
X58204Y-53443D01*
X60800Y-61471D02*
X60800Y-61311D01*
X60838Y-61311D01*
X60861Y-61319D01*
X60876Y-61334D01*
X60884Y-61349D01*
X60892Y-61380D01*
X60892Y-61402D01*
X60884Y-61433D01*
X60876Y-61448D01*
X60861Y-61463D01*
X60838Y-61471D01*
X60800Y-61471D01*
X60953Y-61326D02*
X60960Y-61319D01*
X60975Y-61311D01*
X61014Y-61311D01*
X61029Y-61319D01*
X61036Y-61326D01*
X61044Y-61342D01*
X61044Y-61357D01*
X61036Y-61380D01*
X60945Y-61471D01*
X61044Y-61471D01*
X61113Y-61456D02*
X61120Y-61463D01*
X61113Y-61471D01*
X61105Y-61463D01*
X61113Y-61456D01*
X61113Y-61471D01*
X61113Y-61372D02*
X61120Y-61380D01*
X61113Y-61387D01*
X61105Y-61380D01*
X61113Y-61372D01*
X61113Y-61387D01*
X61257Y-61364D02*
X61257Y-61471D01*
X61219Y-61303D02*
X61181Y-61418D01*
X61280Y-61418D01*
X60370Y-60923D02*
X60370Y-60683D01*
X60427Y-60683D01*
X60461Y-60695D01*
X60484Y-60718D01*
X60495Y-60741D01*
X60507Y-60786D01*
X60507Y-60821D01*
X60495Y-60866D01*
X60484Y-60889D01*
X60461Y-60912D01*
X60427Y-60923D01*
X60370Y-60923D01*
X66312Y-46510D02*
X66312Y-46350D01*
X66350Y-46350D01*
X66373Y-46358D01*
X66388Y-46373D01*
X66396Y-46388D01*
X66403Y-46419D01*
X66403Y-46442D01*
X66396Y-46472D01*
X66388Y-46488D01*
X66373Y-46503D01*
X66350Y-46510D01*
X66312Y-46510D01*
X66541Y-46404D02*
X66541Y-46510D01*
X66502Y-46343D02*
X66464Y-46457D01*
X66563Y-46457D01*
X66624Y-46495D02*
X66632Y-46503D01*
X66624Y-46510D01*
X66617Y-46503D01*
X66624Y-46495D01*
X66624Y-46510D01*
X66624Y-46411D02*
X66632Y-46419D01*
X66624Y-46427D01*
X66617Y-46419D01*
X66624Y-46411D01*
X66624Y-46427D01*
X66777Y-46350D02*
X66701Y-46350D01*
X66693Y-46427D01*
X66701Y-46419D01*
X66716Y-46411D01*
X66754Y-46411D01*
X66769Y-46419D01*
X66777Y-46427D01*
X66784Y-46442D01*
X66784Y-46480D01*
X66777Y-46495D01*
X66769Y-46503D01*
X66754Y-46510D01*
X66716Y-46510D01*
X66701Y-46503D01*
X66693Y-46495D01*
X65882Y-45963D02*
X65882Y-45723D01*
X65939Y-45723D01*
X65973Y-45734D01*
X65996Y-45757D01*
X66007Y-45780D01*
X66019Y-45826D01*
X66019Y-45860D01*
X66007Y-45906D01*
X65996Y-45928D01*
X65973Y-45951D01*
X65939Y-45963D01*
X65882Y-45963D01*
X63143Y-67791D02*
X63143Y-67631D01*
X63182Y-67631D01*
X63204Y-67639D01*
X63220Y-67654D01*
X63227Y-67669D01*
X63235Y-67700D01*
X63235Y-67723D01*
X63227Y-67753D01*
X63220Y-67768D01*
X63204Y-67784D01*
X63182Y-67791D01*
X63143Y-67791D01*
X63387Y-67791D02*
X63296Y-67791D01*
X63342Y-67791D02*
X63342Y-67631D01*
X63326Y-67654D01*
X63311Y-67669D01*
X63296Y-67677D01*
X63456Y-67776D02*
X63463Y-67784D01*
X63456Y-67791D01*
X63448Y-67784D01*
X63456Y-67776D01*
X63456Y-67791D01*
X63456Y-67692D02*
X63463Y-67700D01*
X63456Y-67708D01*
X63448Y-67700D01*
X63456Y-67692D01*
X63456Y-67708D01*
X63608Y-67631D02*
X63532Y-67631D01*
X63524Y-67708D01*
X63532Y-67700D01*
X63547Y-67692D01*
X63585Y-67692D01*
X63601Y-67700D01*
X63608Y-67708D01*
X63616Y-67723D01*
X63616Y-67761D01*
X63608Y-67776D01*
X63601Y-67784D01*
X63585Y-67791D01*
X63547Y-67791D01*
X63532Y-67784D01*
X63524Y-67776D01*
X63913Y-68404D02*
X63913Y-68164D01*
X63970Y-68164D01*
X64004Y-68175D01*
X64027Y-68198D01*
X64039Y-68221D01*
X64050Y-68267D01*
X64050Y-68301D01*
X64039Y-68347D01*
X64027Y-68369D01*
X64004Y-68392D01*
X63970Y-68404D01*
X63913Y-68404D01*
X68281Y-53991D02*
X68281Y-53831D01*
X68319Y-53831D01*
X68341Y-53838D01*
X68357Y-53854D01*
X68364Y-53869D01*
X68372Y-53899D01*
X68372Y-53922D01*
X68364Y-53953D01*
X68357Y-53968D01*
X68341Y-53983D01*
X68319Y-53991D01*
X68281Y-53991D01*
X68425Y-53831D02*
X68524Y-53831D01*
X68471Y-53892D01*
X68494Y-53892D01*
X68509Y-53899D01*
X68517Y-53907D01*
X68524Y-53922D01*
X68524Y-53960D01*
X68517Y-53975D01*
X68509Y-53983D01*
X68494Y-53991D01*
X68448Y-53991D01*
X68433Y-53983D01*
X68425Y-53975D01*
X68593Y-53975D02*
X68601Y-53983D01*
X68593Y-53991D01*
X68585Y-53983D01*
X68593Y-53975D01*
X68593Y-53991D01*
X68593Y-53892D02*
X68601Y-53899D01*
X68593Y-53907D01*
X68585Y-53899D01*
X68593Y-53892D01*
X68593Y-53907D01*
X68745Y-53831D02*
X68669Y-53831D01*
X68661Y-53907D01*
X68669Y-53899D01*
X68684Y-53892D01*
X68722Y-53892D01*
X68738Y-53899D01*
X68745Y-53907D01*
X68753Y-53922D01*
X68753Y-53960D01*
X68745Y-53975D01*
X68738Y-53983D01*
X68722Y-53991D01*
X68684Y-53991D01*
X68669Y-53983D01*
X68661Y-53975D01*
X67850Y-53443D02*
X67850Y-53203D01*
X67907Y-53203D01*
X67941Y-53215D01*
X67964Y-53237D01*
X67976Y-53260D01*
X67987Y-53306D01*
X67987Y-53340D01*
X67976Y-53386D01*
X67964Y-53409D01*
X67941Y-53432D01*
X67907Y-53443D01*
X67850Y-53443D01*
X68281Y-61471D02*
X68281Y-61311D01*
X68319Y-61311D01*
X68341Y-61319D01*
X68357Y-61334D01*
X68364Y-61349D01*
X68372Y-61380D01*
X68372Y-61402D01*
X68364Y-61433D01*
X68357Y-61448D01*
X68341Y-61463D01*
X68319Y-61471D01*
X68281Y-61471D01*
X68433Y-61326D02*
X68441Y-61319D01*
X68456Y-61311D01*
X68494Y-61311D01*
X68509Y-61319D01*
X68517Y-61326D01*
X68524Y-61342D01*
X68524Y-61357D01*
X68517Y-61380D01*
X68425Y-61471D01*
X68524Y-61471D01*
X68593Y-61456D02*
X68601Y-61463D01*
X68593Y-61471D01*
X68585Y-61463D01*
X68593Y-61456D01*
X68593Y-61471D01*
X68593Y-61372D02*
X68601Y-61380D01*
X68593Y-61387D01*
X68585Y-61380D01*
X68593Y-61372D01*
X68593Y-61387D01*
X68745Y-61311D02*
X68669Y-61311D01*
X68661Y-61387D01*
X68669Y-61380D01*
X68684Y-61372D01*
X68722Y-61372D01*
X68738Y-61380D01*
X68745Y-61387D01*
X68753Y-61402D01*
X68753Y-61441D01*
X68745Y-61456D01*
X68738Y-61463D01*
X68722Y-61471D01*
X68684Y-61471D01*
X68669Y-61463D01*
X68661Y-61456D01*
X67850Y-60923D02*
X67850Y-60683D01*
X67907Y-60683D01*
X67941Y-60695D01*
X67964Y-60718D01*
X67976Y-60741D01*
X67987Y-60786D01*
X67987Y-60821D01*
X67976Y-60866D01*
X67964Y-60889D01*
X67941Y-60912D01*
X67907Y-60923D01*
X67850Y-60923D01*
X73792Y-46510D02*
X73792Y-46350D01*
X73830Y-46350D01*
X73853Y-46358D01*
X73869Y-46373D01*
X73876Y-46388D01*
X73884Y-46419D01*
X73884Y-46442D01*
X73876Y-46472D01*
X73869Y-46488D01*
X73853Y-46503D01*
X73830Y-46510D01*
X73792Y-46510D01*
X74021Y-46404D02*
X74021Y-46510D01*
X73983Y-46343D02*
X73945Y-46457D01*
X74044Y-46457D01*
X74105Y-46495D02*
X74112Y-46503D01*
X74105Y-46510D01*
X74097Y-46503D01*
X74105Y-46495D01*
X74105Y-46510D01*
X74105Y-46411D02*
X74112Y-46419D01*
X74105Y-46427D01*
X74097Y-46419D01*
X74105Y-46411D01*
X74105Y-46427D01*
X74249Y-46350D02*
X74219Y-46350D01*
X74204Y-46358D01*
X74196Y-46366D01*
X74181Y-46388D01*
X74173Y-46419D01*
X74173Y-46480D01*
X74181Y-46495D01*
X74189Y-46503D01*
X74204Y-46510D01*
X74234Y-46510D01*
X74249Y-46503D01*
X74257Y-46495D01*
X74265Y-46480D01*
X74265Y-46442D01*
X74257Y-46427D01*
X74249Y-46419D01*
X74234Y-46411D01*
X74204Y-46411D01*
X74189Y-46419D01*
X74181Y-46427D01*
X74173Y-46442D01*
X73362Y-45963D02*
X73362Y-45723D01*
X73419Y-45723D01*
X73453Y-45734D01*
X73476Y-45757D01*
X73488Y-45780D01*
X73499Y-45826D01*
X73499Y-45860D01*
X73488Y-45906D01*
X73476Y-45928D01*
X73453Y-45951D01*
X73419Y-45963D01*
X73362Y-45963D01*
X69640Y-67791D02*
X69640Y-67631D01*
X69678Y-67631D01*
X69701Y-67639D01*
X69716Y-67654D01*
X69723Y-67669D01*
X69731Y-67700D01*
X69731Y-67723D01*
X69723Y-67753D01*
X69716Y-67768D01*
X69701Y-67784D01*
X69678Y-67791D01*
X69640Y-67791D01*
X69883Y-67791D02*
X69792Y-67791D01*
X69838Y-67791D02*
X69838Y-67631D01*
X69822Y-67654D01*
X69807Y-67669D01*
X69792Y-67677D01*
X69952Y-67776D02*
X69960Y-67784D01*
X69952Y-67791D01*
X69944Y-67784D01*
X69952Y-67776D01*
X69952Y-67791D01*
X69952Y-67692D02*
X69960Y-67700D01*
X69952Y-67708D01*
X69944Y-67700D01*
X69952Y-67692D01*
X69952Y-67708D01*
X70097Y-67631D02*
X70066Y-67631D01*
X70051Y-67639D01*
X70043Y-67647D01*
X70028Y-67669D01*
X70021Y-67700D01*
X70021Y-67761D01*
X70028Y-67776D01*
X70036Y-67784D01*
X70051Y-67791D01*
X70081Y-67791D01*
X70097Y-67784D01*
X70104Y-67776D01*
X70112Y-67761D01*
X70112Y-67723D01*
X70104Y-67708D01*
X70097Y-67700D01*
X70081Y-67692D01*
X70051Y-67692D01*
X70036Y-67700D01*
X70028Y-67708D01*
X70021Y-67723D01*
X70409Y-68404D02*
X70409Y-68164D01*
X70466Y-68164D01*
X70501Y-68175D01*
X70523Y-68198D01*
X70535Y-68221D01*
X70546Y-68267D01*
X70546Y-68301D01*
X70535Y-68347D01*
X70523Y-68369D01*
X70501Y-68392D01*
X70466Y-68404D01*
X70409Y-68404D01*
X74580Y-68951D02*
X74580Y-68791D01*
X74618Y-68791D01*
X74641Y-68799D01*
X74656Y-68814D01*
X74664Y-68829D01*
X74671Y-68860D01*
X74671Y-68883D01*
X74664Y-68913D01*
X74656Y-68928D01*
X74641Y-68944D01*
X74618Y-68951D01*
X74580Y-68951D01*
X74770Y-68791D02*
X74785Y-68791D01*
X74801Y-68799D01*
X74808Y-68807D01*
X74816Y-68822D01*
X74824Y-68852D01*
X74824Y-68890D01*
X74816Y-68921D01*
X74808Y-68936D01*
X74801Y-68944D01*
X74785Y-68951D01*
X74770Y-68951D01*
X74755Y-68944D01*
X74747Y-68936D01*
X74740Y-68921D01*
X74732Y-68890D01*
X74732Y-68852D01*
X74740Y-68822D01*
X74747Y-68807D01*
X74755Y-68799D01*
X74770Y-68791D01*
X74892Y-68936D02*
X74900Y-68944D01*
X74892Y-68951D01*
X74884Y-68944D01*
X74892Y-68936D01*
X74892Y-68951D01*
X74892Y-68852D02*
X74900Y-68860D01*
X74892Y-68868D01*
X74884Y-68860D01*
X74892Y-68852D01*
X74892Y-68868D01*
X75037Y-68791D02*
X75006Y-68791D01*
X74991Y-68799D01*
X74984Y-68807D01*
X74968Y-68829D01*
X74961Y-68860D01*
X74961Y-68921D01*
X74968Y-68936D01*
X74976Y-68944D01*
X74991Y-68951D01*
X75022Y-68951D01*
X75037Y-68944D01*
X75044Y-68936D01*
X75052Y-68921D01*
X75052Y-68883D01*
X75044Y-68868D01*
X75037Y-68860D01*
X75022Y-68852D01*
X74991Y-68852D01*
X74976Y-68860D01*
X74968Y-68868D01*
X74961Y-68883D01*
X74149Y-68404D02*
X74149Y-68164D01*
X74206Y-68164D01*
X74241Y-68175D01*
X74264Y-68198D01*
X74275Y-68221D01*
X74286Y-68267D01*
X74286Y-68301D01*
X74275Y-68347D01*
X74264Y-68369D01*
X74241Y-68392D01*
X74206Y-68404D01*
X74149Y-68404D01*
X73792Y-53991D02*
X73792Y-53831D01*
X73830Y-53831D01*
X73853Y-53838D01*
X73869Y-53854D01*
X73876Y-53869D01*
X73884Y-53899D01*
X73884Y-53922D01*
X73876Y-53953D01*
X73869Y-53968D01*
X73853Y-53983D01*
X73830Y-53991D01*
X73792Y-53991D01*
X73937Y-53831D02*
X74036Y-53831D01*
X73983Y-53892D01*
X74006Y-53892D01*
X74021Y-53899D01*
X74029Y-53907D01*
X74036Y-53922D01*
X74036Y-53960D01*
X74029Y-53975D01*
X74021Y-53983D01*
X74006Y-53991D01*
X73960Y-53991D01*
X73945Y-53983D01*
X73937Y-53975D01*
X74105Y-53975D02*
X74112Y-53983D01*
X74105Y-53991D01*
X74097Y-53983D01*
X74105Y-53975D01*
X74105Y-53991D01*
X74105Y-53892D02*
X74112Y-53899D01*
X74105Y-53907D01*
X74097Y-53899D01*
X74105Y-53892D01*
X74105Y-53907D01*
X74249Y-53831D02*
X74219Y-53831D01*
X74204Y-53838D01*
X74196Y-53846D01*
X74181Y-53869D01*
X74173Y-53899D01*
X74173Y-53960D01*
X74181Y-53975D01*
X74189Y-53983D01*
X74204Y-53991D01*
X74234Y-53991D01*
X74249Y-53983D01*
X74257Y-53975D01*
X74265Y-53960D01*
X74265Y-53922D01*
X74257Y-53907D01*
X74249Y-53899D01*
X74234Y-53892D01*
X74204Y-53892D01*
X74189Y-53899D01*
X74181Y-53907D01*
X74173Y-53922D01*
X73362Y-53443D02*
X73362Y-53203D01*
X73419Y-53203D01*
X73453Y-53215D01*
X73476Y-53237D01*
X73488Y-53260D01*
X73499Y-53306D01*
X73499Y-53340D01*
X73488Y-53386D01*
X73476Y-53409D01*
X73453Y-53432D01*
X73419Y-53443D01*
X73362Y-53443D01*
X75564Y-61274D02*
X75564Y-61114D01*
X75602Y-61114D01*
X75625Y-61122D01*
X75640Y-61137D01*
X75648Y-61152D01*
X75655Y-61183D01*
X75655Y-61206D01*
X75648Y-61236D01*
X75640Y-61251D01*
X75625Y-61267D01*
X75602Y-61274D01*
X75564Y-61274D01*
X75716Y-61129D02*
X75724Y-61122D01*
X75739Y-61114D01*
X75777Y-61114D01*
X75793Y-61122D01*
X75800Y-61129D01*
X75808Y-61145D01*
X75808Y-61160D01*
X75800Y-61183D01*
X75709Y-61274D01*
X75808Y-61274D01*
X75876Y-61259D02*
X75884Y-61267D01*
X75876Y-61274D01*
X75869Y-61267D01*
X75876Y-61259D01*
X75876Y-61274D01*
X75876Y-61175D02*
X75884Y-61183D01*
X75876Y-61190D01*
X75869Y-61183D01*
X75876Y-61175D01*
X75876Y-61190D01*
X76021Y-61114D02*
X75991Y-61114D01*
X75975Y-61122D01*
X75968Y-61129D01*
X75953Y-61152D01*
X75945Y-61183D01*
X75945Y-61244D01*
X75953Y-61259D01*
X75960Y-61267D01*
X75975Y-61274D01*
X76006Y-61274D01*
X76021Y-61267D01*
X76029Y-61259D01*
X76036Y-61244D01*
X76036Y-61206D01*
X76029Y-61190D01*
X76021Y-61183D01*
X76006Y-61175D01*
X75975Y-61175D01*
X75960Y-61183D01*
X75953Y-61190D01*
X75945Y-61206D01*
X75133Y-60727D02*
X75133Y-60487D01*
X75191Y-60487D01*
X75225Y-60498D01*
X75248Y-60521D01*
X75259Y-60544D01*
X75271Y-60589D01*
X75271Y-60624D01*
X75259Y-60669D01*
X75248Y-60692D01*
X75225Y-60715D01*
X75191Y-60727D01*
X75133Y-60727D01*
X82041Y-45350D02*
X82041Y-45190D01*
X82079Y-45190D01*
X82102Y-45198D01*
X82117Y-45213D01*
X82125Y-45228D01*
X82133Y-45259D01*
X82133Y-45282D01*
X82125Y-45312D01*
X82117Y-45328D01*
X82102Y-45343D01*
X82079Y-45350D01*
X82041Y-45350D01*
X82270Y-45244D02*
X82270Y-45350D01*
X82232Y-45183D02*
X82194Y-45297D01*
X82293Y-45297D01*
X82354Y-45335D02*
X82361Y-45343D01*
X82354Y-45350D01*
X82346Y-45343D01*
X82354Y-45335D01*
X82354Y-45350D01*
X82354Y-45251D02*
X82361Y-45259D01*
X82354Y-45267D01*
X82346Y-45259D01*
X82354Y-45251D01*
X82354Y-45267D01*
X82414Y-45190D02*
X82521Y-45190D01*
X82453Y-45350D01*
X82811Y-45963D02*
X82811Y-45723D01*
X82868Y-45723D01*
X82902Y-45734D01*
X82925Y-45757D01*
X82936Y-45780D01*
X82948Y-45826D01*
X82948Y-45860D01*
X82936Y-45906D01*
X82925Y-45928D01*
X82902Y-45951D01*
X82868Y-45963D01*
X82811Y-45963D01*
X79285Y-61098D02*
X79285Y-60938D01*
X79323Y-60938D01*
X79346Y-60946D01*
X79361Y-60961D01*
X79369Y-60977D01*
X79377Y-61007D01*
X79377Y-61030D01*
X79369Y-61060D01*
X79361Y-61076D01*
X79346Y-61091D01*
X79323Y-61098D01*
X79285Y-61098D01*
X79529Y-61098D02*
X79438Y-61098D01*
X79483Y-61098D02*
X79483Y-60938D01*
X79468Y-60961D01*
X79453Y-60977D01*
X79438Y-60984D01*
X79598Y-61083D02*
X79605Y-61091D01*
X79598Y-61098D01*
X79590Y-61091D01*
X79598Y-61083D01*
X79598Y-61098D01*
X79598Y-60999D02*
X79605Y-61007D01*
X79598Y-61015D01*
X79590Y-61007D01*
X79598Y-60999D01*
X79598Y-61015D01*
X79659Y-60938D02*
X79765Y-60938D01*
X79697Y-61098D01*
X80055Y-61711D02*
X80055Y-61471D01*
X80112Y-61471D01*
X80146Y-61482D01*
X80169Y-61505D01*
X80180Y-61528D01*
X80192Y-61574D01*
X80192Y-61608D01*
X80180Y-61654D01*
X80169Y-61677D01*
X80146Y-61699D01*
X80112Y-61711D01*
X80055Y-61711D01*
G54D14*
X93989Y-72040D02*
X94304Y-72250D01*
X93989Y-72250D02*
X94304Y-72040D01*
X94019Y-72355D02*
X94004Y-72370D01*
X93989Y-72400D01*
X93989Y-72475D01*
X94004Y-72505D01*
X94019Y-72520D01*
X94049Y-72535D01*
X94079Y-72535D01*
X94124Y-72520D01*
X94304Y-72340D01*
X94304Y-72535D01*
X96085Y-71685D02*
X96100Y-71670D01*
X96115Y-71625D01*
X96115Y-71595D01*
X96100Y-71550D01*
X96070Y-71520D01*
X96040Y-71505D01*
X95980Y-71491D01*
X95935Y-71491D01*
X95875Y-71505D01*
X95845Y-71520D01*
X95815Y-71550D01*
X95800Y-71595D01*
X95800Y-71625D01*
X95815Y-71670D01*
X95830Y-71685D01*
X96115Y-72000D02*
X95965Y-71895D01*
X96115Y-71820D02*
X95800Y-71820D01*
X95800Y-71940D01*
X95815Y-71970D01*
X95830Y-71985D01*
X95860Y-72000D01*
X95905Y-72000D01*
X95935Y-71985D01*
X95950Y-71970D01*
X95965Y-71940D01*
X95965Y-71820D01*
X95965Y-72195D02*
X96115Y-72195D01*
X95800Y-72090D02*
X95965Y-72195D01*
X95800Y-72300D01*
X96100Y-72390D02*
X96115Y-72435D01*
X96115Y-72510D01*
X96100Y-72540D01*
X96085Y-72555D01*
X96055Y-72570D01*
X96025Y-72570D01*
X95995Y-72555D01*
X95980Y-72540D01*
X95965Y-72510D01*
X95950Y-72450D01*
X95935Y-72420D01*
X95920Y-72405D01*
X95890Y-72390D01*
X95860Y-72390D01*
X95830Y-72405D01*
X95815Y-72420D01*
X95800Y-72450D01*
X95800Y-72525D01*
X95815Y-72570D01*
X95800Y-72660D02*
X95800Y-72840D01*
X96115Y-72750D02*
X95800Y-72750D01*
X96025Y-72930D02*
X96025Y-73080D01*
X96115Y-72900D02*
X95800Y-73005D01*
X96115Y-73110D01*
X96115Y-73365D02*
X96115Y-73215D01*
X95800Y-73215D01*
M02*
